<mxfile host="Electron" agent="Mozilla/5.0 (X11; Linux x86_64) AppleWebKit/537.36 (KHTML, like Gecko) draw.io/24.7.8 Chrome/128.0.6613.36 Electron/32.0.1 Safari/537.36" version="24.7.8" pages="5">
  <diagram name="declaraciones" id="ZKz4KZbUkjmO5gKNP207">
    <mxGraphModel dx="438" dy="843" grid="1" gridSize="10" guides="1" tooltips="1" connect="1" arrows="1" fold="1" page="1" pageScale="1" pageWidth="850" pageHeight="1100" math="0" shadow="0">
      <root>
        <mxCell id="0" />
        <mxCell id="1" parent="0" />
        <mxCell id="jfjVnfNzoAa86E3MCEEi-1" value="&lt;span style=&quot;font-family: &amp;quot;Courier New&amp;quot;;&quot;&gt;Declaraciones&lt;/span&gt;" style="rounded=1;whiteSpace=wrap;html=1;" parent="1" vertex="1">
          <mxGeometry x="150" y="160" width="120" height="60" as="geometry" />
        </mxCell>
        <mxCell id="jfjVnfNzoAa86E3MCEEi-4" value="" style="endArrow=classic;html=1;rounded=0;entryX=0;entryY=0.5;entryDx=0;entryDy=0;" parent="1" target="jfjVnfNzoAa86E3MCEEi-1" edge="1">
          <mxGeometry width="50" height="50" relative="1" as="geometry">
            <mxPoint x="50" y="190" as="sourcePoint" />
            <mxPoint x="150" y="190" as="targetPoint" />
          </mxGeometry>
        </mxCell>
        <mxCell id="jfjVnfNzoAa86E3MCEEi-5" value="" style="endArrow=classic;html=1;rounded=0;entryX=0;entryY=0.5;entryDx=0;entryDy=0;" parent="1" edge="1">
          <mxGeometry width="50" height="50" relative="1" as="geometry">
            <mxPoint x="270" y="189.5" as="sourcePoint" />
            <mxPoint x="300" y="189.5" as="targetPoint" />
          </mxGeometry>
        </mxCell>
        <mxCell id="jfjVnfNzoAa86E3MCEEi-7" value="" style="endArrow=classic;startArrow=classic;html=1;rounded=0;" parent="1" edge="1">
          <mxGeometry width="50" height="50" relative="1" as="geometry">
            <mxPoint x="130" y="190" as="sourcePoint" />
            <mxPoint x="280" y="190" as="targetPoint" />
            <Array as="points">
              <mxPoint x="130" y="150" />
              <mxPoint x="200" y="150" />
              <mxPoint x="280" y="150" />
            </Array>
          </mxGeometry>
        </mxCell>
        <mxCell id="jfjVnfNzoAa86E3MCEEi-8" value="Unidad de traducción" style="text;html=1;align=center;verticalAlign=middle;whiteSpace=wrap;rounded=0;fontFamily=Courier New;fontStyle=0;fontColor=#001DBC;" parent="1" vertex="1">
          <mxGeometry x="60" y="200" width="60" height="30" as="geometry" />
        </mxCell>
        <mxCell id="jfjVnfNzoAa86E3MCEEi-9" value="Declaraciones" style="text;html=1;align=center;verticalAlign=middle;whiteSpace=wrap;rounded=0;fontFamily=Courier New;fontColor=#001DBC;" parent="1" vertex="1">
          <mxGeometry x="70" y="320" width="60" height="30" as="geometry" />
        </mxCell>
        <mxCell id="jfjVnfNzoAa86E3MCEEi-10" value="" style="endArrow=classic;html=1;rounded=0;entryX=0;entryY=0.5;entryDx=0;entryDy=0;" parent="1" edge="1">
          <mxGeometry width="50" height="50" relative="1" as="geometry">
            <mxPoint x="50" y="320" as="sourcePoint" />
            <mxPoint x="150" y="320" as="targetPoint" />
          </mxGeometry>
        </mxCell>
        <mxCell id="jfjVnfNzoAa86E3MCEEi-13" style="edgeStyle=orthogonalEdgeStyle;rounded=0;orthogonalLoop=1;jettySize=auto;html=1;exitX=1;exitY=0.5;exitDx=0;exitDy=0;entryX=0;entryY=0.5;entryDx=0;entryDy=0;" parent="1" source="jfjVnfNzoAa86E3MCEEi-11" target="jfjVnfNzoAa86E3MCEEi-12" edge="1">
          <mxGeometry relative="1" as="geometry" />
        </mxCell>
        <mxCell id="jfjVnfNzoAa86E3MCEEi-11" value="&lt;span style=&quot;font-family: &amp;quot;Courier New&amp;quot;;&quot;&gt;Especificador de tipo&lt;/span&gt;" style="rounded=1;whiteSpace=wrap;html=1;" parent="1" vertex="1">
          <mxGeometry x="150" y="290" width="120" height="60" as="geometry" />
        </mxCell>
        <mxCell id="jfjVnfNzoAa86E3MCEEi-15" style="edgeStyle=orthogonalEdgeStyle;rounded=0;orthogonalLoop=1;jettySize=auto;html=1;exitX=1;exitY=0.5;exitDx=0;exitDy=0;entryX=0;entryY=0.5;entryDx=0;entryDy=0;" parent="1" source="jfjVnfNzoAa86E3MCEEi-12" target="jfjVnfNzoAa86E3MCEEi-14" edge="1">
          <mxGeometry relative="1" as="geometry">
            <mxPoint x="400" y="320" as="targetPoint" />
          </mxGeometry>
        </mxCell>
        <mxCell id="jfjVnfNzoAa86E3MCEEi-12" value="&lt;b&gt;&lt;font face=&quot;Courier New&quot;&gt;ident&lt;/font&gt;&lt;/b&gt;" style="ellipse;whiteSpace=wrap;html=1;" parent="1" vertex="1">
          <mxGeometry x="320" y="295" width="50" height="50" as="geometry" />
        </mxCell>
        <mxCell id="jfjVnfNzoAa86E3MCEEi-14" value="&lt;span style=&quot;font-family: &amp;quot;Courier New&amp;quot;;&quot;&gt;Especificador de declaración&lt;/span&gt;" style="rounded=1;whiteSpace=wrap;html=1;" parent="1" vertex="1">
          <mxGeometry x="420" y="290" width="120" height="60" as="geometry" />
        </mxCell>
        <mxCell id="jfjVnfNzoAa86E3MCEEi-16" value="&lt;b&gt;&lt;font face=&quot;Courier New&quot;&gt;void&lt;/font&gt;&lt;/b&gt;" style="ellipse;whiteSpace=wrap;html=1;" parent="1" vertex="1">
          <mxGeometry x="185" y="430" width="50" height="50" as="geometry" />
        </mxCell>
        <mxCell id="jfjVnfNzoAa86E3MCEEi-17" value="&lt;b&gt;&lt;font face=&quot;Courier New&quot;&gt;char&lt;/font&gt;&lt;/b&gt;" style="ellipse;whiteSpace=wrap;html=1;" parent="1" vertex="1">
          <mxGeometry x="185" y="500" width="50" height="50" as="geometry" />
        </mxCell>
        <mxCell id="jfjVnfNzoAa86E3MCEEi-18" value="&lt;b&gt;&lt;font face=&quot;Courier New&quot;&gt;int&lt;/font&gt;&lt;/b&gt;" style="ellipse;whiteSpace=wrap;html=1;" parent="1" vertex="1">
          <mxGeometry x="185" y="570" width="50" height="50" as="geometry" />
        </mxCell>
        <mxCell id="jfjVnfNzoAa86E3MCEEi-19" value="&lt;b&gt;&lt;font face=&quot;Courier New&quot;&gt;float&lt;/font&gt;&lt;/b&gt;" style="ellipse;whiteSpace=wrap;html=1;" parent="1" vertex="1">
          <mxGeometry x="185" y="640" width="50" height="50" as="geometry" />
        </mxCell>
        <mxCell id="jfjVnfNzoAa86E3MCEEi-20" value="" style="endArrow=classic;html=1;rounded=0;entryX=0;entryY=0.5;entryDx=0;entryDy=0;" parent="1" target="jfjVnfNzoAa86E3MCEEi-16" edge="1">
          <mxGeometry width="50" height="50" relative="1" as="geometry">
            <mxPoint x="50" y="454.5" as="sourcePoint" />
            <mxPoint x="170" y="454.5" as="targetPoint" />
          </mxGeometry>
        </mxCell>
        <mxCell id="jfjVnfNzoAa86E3MCEEi-21" value="Especificador de tipo" style="text;html=1;align=center;verticalAlign=middle;whiteSpace=wrap;rounded=0;fontFamily=Courier New;fontColor=#001DBC;" parent="1" vertex="1">
          <mxGeometry x="70" y="460" width="60" height="30" as="geometry" />
        </mxCell>
        <mxCell id="jfjVnfNzoAa86E3MCEEi-22" value="" style="endArrow=classic;html=1;rounded=0;entryX=0;entryY=0.5;entryDx=0;entryDy=0;" parent="1" target="jfjVnfNzoAa86E3MCEEi-17" edge="1">
          <mxGeometry width="50" height="50" relative="1" as="geometry">
            <mxPoint x="160" y="460" as="sourcePoint" />
            <mxPoint x="390" y="410" as="targetPoint" />
            <Array as="points">
              <mxPoint x="160" y="525" />
            </Array>
          </mxGeometry>
        </mxCell>
        <mxCell id="jfjVnfNzoAa86E3MCEEi-23" value="" style="endArrow=classic;html=1;rounded=0;entryX=0;entryY=0.5;entryDx=0;entryDy=0;" parent="1" edge="1">
          <mxGeometry width="50" height="50" relative="1" as="geometry">
            <mxPoint x="160" y="510" as="sourcePoint" />
            <mxPoint x="185" y="595" as="targetPoint" />
            <Array as="points">
              <mxPoint x="160" y="595" />
            </Array>
          </mxGeometry>
        </mxCell>
        <mxCell id="jfjVnfNzoAa86E3MCEEi-24" value="" style="endArrow=classic;html=1;rounded=0;entryX=0;entryY=0.5;entryDx=0;entryDy=0;" parent="1" edge="1">
          <mxGeometry width="50" height="50" relative="1" as="geometry">
            <mxPoint x="160" y="590" as="sourcePoint" />
            <mxPoint x="185" y="665" as="targetPoint" />
            <Array as="points">
              <mxPoint x="160" y="665" />
            </Array>
          </mxGeometry>
        </mxCell>
        <mxCell id="jfjVnfNzoAa86E3MCEEi-27" style="edgeStyle=orthogonalEdgeStyle;rounded=0;orthogonalLoop=1;jettySize=auto;html=1;exitX=1;exitY=0.5;exitDx=0;exitDy=0;entryX=0;entryY=0.5;entryDx=0;entryDy=0;" parent="1" edge="1">
          <mxGeometry relative="1" as="geometry">
            <mxPoint x="235" y="454.5" as="sourcePoint" />
            <mxPoint x="285" y="454.5" as="targetPoint" />
          </mxGeometry>
        </mxCell>
        <mxCell id="jfjVnfNzoAa86E3MCEEi-28" value="" style="endArrow=none;html=1;rounded=0;exitX=1;exitY=0.5;exitDx=0;exitDy=0;" parent="1" source="jfjVnfNzoAa86E3MCEEi-17" edge="1">
          <mxGeometry width="50" height="50" relative="1" as="geometry">
            <mxPoint x="340" y="460" as="sourcePoint" />
            <mxPoint x="260" y="460" as="targetPoint" />
            <Array as="points">
              <mxPoint x="260" y="525" />
            </Array>
          </mxGeometry>
        </mxCell>
        <mxCell id="jfjVnfNzoAa86E3MCEEi-29" value="" style="endArrow=none;html=1;rounded=0;exitX=1;exitY=0.5;exitDx=0;exitDy=0;" parent="1" edge="1">
          <mxGeometry width="50" height="50" relative="1" as="geometry">
            <mxPoint x="235" y="595" as="sourcePoint" />
            <mxPoint x="260" y="510" as="targetPoint" />
            <Array as="points">
              <mxPoint x="260" y="595" />
            </Array>
          </mxGeometry>
        </mxCell>
        <mxCell id="jfjVnfNzoAa86E3MCEEi-30" value="" style="endArrow=none;html=1;rounded=0;exitX=1;exitY=0.5;exitDx=0;exitDy=0;" parent="1" edge="1">
          <mxGeometry width="50" height="50" relative="1" as="geometry">
            <mxPoint x="235" y="665" as="sourcePoint" />
            <mxPoint x="260" y="590" as="targetPoint" />
            <Array as="points">
              <mxPoint x="260" y="665" />
            </Array>
          </mxGeometry>
        </mxCell>
        <mxCell id="rt_GVT3rxF4aA-TsVIym-2" value="Especificador de d&lt;span style=&quot;background-color: initial;&quot;&gt;eclaración&lt;/span&gt;" style="text;html=1;align=center;verticalAlign=middle;whiteSpace=wrap;rounded=0;fontFamily=Courier New;fontColor=#001DBC;" parent="1" vertex="1">
          <mxGeometry x="310" y="460" width="110" height="30" as="geometry" />
        </mxCell>
        <mxCell id="rt_GVT3rxF4aA-TsVIym-3" value="" style="endArrow=classic;html=1;rounded=0;entryX=0;entryY=0.5;entryDx=0;entryDy=0;" parent="1" target="rt_GVT3rxF4aA-TsVIym-4" edge="1">
          <mxGeometry width="50" height="50" relative="1" as="geometry">
            <mxPoint x="320" y="455" as="sourcePoint" />
            <mxPoint x="420" y="455" as="targetPoint" />
          </mxGeometry>
        </mxCell>
        <mxCell id="Ni-QC99xmvO0z8lU1C_D-2" style="edgeStyle=orthogonalEdgeStyle;rounded=0;orthogonalLoop=1;jettySize=auto;html=1;exitX=1;exitY=0.5;exitDx=0;exitDy=0;" parent="1" source="rt_GVT3rxF4aA-TsVIym-4" edge="1">
          <mxGeometry relative="1" as="geometry">
            <mxPoint x="640" y="455" as="targetPoint" />
          </mxGeometry>
        </mxCell>
        <mxCell id="rt_GVT3rxF4aA-TsVIym-4" value="&lt;span style=&quot;font-family: &amp;quot;Courier New&amp;quot;;&quot;&gt;definición de función&lt;/span&gt;" style="rounded=1;whiteSpace=wrap;html=1;" parent="1" vertex="1">
          <mxGeometry x="470" y="425" width="120" height="60" as="geometry" />
        </mxCell>
        <mxCell id="rt_GVT3rxF4aA-TsVIym-5" value="&lt;span style=&quot;font-family: &amp;quot;Courier New&amp;quot;;&quot;&gt;declaración de variable&lt;/span&gt;" style="rounded=1;whiteSpace=wrap;html=1;" parent="1" vertex="1">
          <mxGeometry x="470" y="520" width="120" height="60" as="geometry" />
        </mxCell>
        <mxCell id="Ni-QC99xmvO0z8lU1C_D-1" value="" style="endArrow=classic;html=1;rounded=0;entryX=0;entryY=0.5;entryDx=0;entryDy=0;" parent="1" target="rt_GVT3rxF4aA-TsVIym-5" edge="1">
          <mxGeometry width="50" height="50" relative="1" as="geometry">
            <mxPoint x="440" y="455" as="sourcePoint" />
            <mxPoint x="465" y="520" as="targetPoint" />
            <Array as="points">
              <mxPoint x="440" y="550" />
            </Array>
          </mxGeometry>
        </mxCell>
        <mxCell id="Ni-QC99xmvO0z8lU1C_D-3" value="" style="endArrow=none;html=1;rounded=0;exitX=1;exitY=0.5;exitDx=0;exitDy=0;" parent="1" edge="1">
          <mxGeometry width="50" height="50" relative="1" as="geometry">
            <mxPoint x="590" y="555" as="sourcePoint" />
            <mxPoint x="615" y="460" as="targetPoint" />
            <Array as="points">
              <mxPoint x="615" y="555" />
            </Array>
          </mxGeometry>
        </mxCell>
      </root>
    </mxGraphModel>
  </diagram>
  <diagram id="V_-CnSp-tmTi7jWENrVB" name="variables">
    <mxGraphModel dx="515" dy="992" grid="1" gridSize="10" guides="1" tooltips="1" connect="1" arrows="1" fold="1" page="1" pageScale="1" pageWidth="850" pageHeight="1100" math="0" shadow="0">
      <root>
        <mxCell id="0" />
        <mxCell id="1" parent="0" />
        <mxCell id="-02uhwSyOtg8k-I5bYCo-1" value="Lista declaraciones init" style="text;html=1;align=center;verticalAlign=middle;whiteSpace=wrap;rounded=0;fontFamily=Courier New;fontColor=#001DBC;" parent="1" vertex="1">
          <mxGeometry x="60" y="200" width="160" height="30" as="geometry" />
        </mxCell>
        <mxCell id="4DNq5mFS9E4w53eDqIhR-1" value="" style="endArrow=classic;html=1;rounded=0;" parent="1" edge="1">
          <mxGeometry width="50" height="50" relative="1" as="geometry">
            <mxPoint x="70" y="194.5" as="sourcePoint" />
            <mxPoint x="220" y="194.5" as="targetPoint" />
          </mxGeometry>
        </mxCell>
        <mxCell id="VAi3okwXPPwKj1F9FfGk-2" style="edgeStyle=orthogonalEdgeStyle;rounded=0;orthogonalLoop=1;jettySize=auto;html=1;exitX=1;exitY=0.5;exitDx=0;exitDy=0;entryX=0;entryY=0.5;entryDx=0;entryDy=0;" parent="1" source="KUwKe5t9Qb-vvieHU84e-1" target="VAi3okwXPPwKj1F9FfGk-1" edge="1">
          <mxGeometry relative="1" as="geometry" />
        </mxCell>
        <mxCell id="KUwKe5t9Qb-vvieHU84e-1" value="&lt;b&gt;&lt;font face=&quot;Courier New&quot;&gt;ident&lt;/font&gt;&lt;/b&gt;" style="ellipse;whiteSpace=wrap;html=1;" parent="1" vertex="1">
          <mxGeometry x="220" y="170" width="50" height="50" as="geometry" />
        </mxCell>
        <mxCell id="VAi3okwXPPwKj1F9FfGk-5" style="edgeStyle=orthogonalEdgeStyle;rounded=0;orthogonalLoop=1;jettySize=auto;html=1;exitX=1;exitY=0.5;exitDx=0;exitDy=0;entryX=0;entryY=0.5;entryDx=0;entryDy=0;" parent="1" source="VAi3okwXPPwKj1F9FfGk-1" target="VAi3okwXPPwKj1F9FfGk-4" edge="1">
          <mxGeometry relative="1" as="geometry" />
        </mxCell>
        <mxCell id="VAi3okwXPPwKj1F9FfGk-1" value="&lt;font face=&quot;Courier New&quot;&gt;Declarador init&lt;/font&gt;" style="rounded=1;whiteSpace=wrap;html=1;" parent="1" vertex="1">
          <mxGeometry x="320" y="165" width="120" height="60" as="geometry" />
        </mxCell>
        <mxCell id="1tVV-16rhZcyd84PS7nt-4" style="edgeStyle=orthogonalEdgeStyle;rounded=0;orthogonalLoop=1;jettySize=auto;html=1;exitX=1;exitY=0.5;exitDx=0;exitDy=0;" parent="1" source="VAi3okwXPPwKj1F9FfGk-4" target="1tVV-16rhZcyd84PS7nt-2" edge="1">
          <mxGeometry relative="1" as="geometry" />
        </mxCell>
        <mxCell id="VAi3okwXPPwKj1F9FfGk-4" value="&lt;font style=&quot;font-size: 16px;&quot;&gt;,&lt;/font&gt;" style="ellipse;whiteSpace=wrap;html=1;aspect=fixed;fontStyle=1" parent="1" vertex="1">
          <mxGeometry x="490" y="180" width="30" height="30" as="geometry" />
        </mxCell>
        <mxCell id="1tVV-16rhZcyd84PS7nt-1" style="edgeStyle=orthogonalEdgeStyle;rounded=0;orthogonalLoop=1;jettySize=auto;html=1;exitX=1;exitY=0.5;exitDx=0;exitDy=0;entryX=0;entryY=0.5;entryDx=0;entryDy=0;" parent="1" source="1tVV-16rhZcyd84PS7nt-2" target="1tVV-16rhZcyd84PS7nt-3" edge="1">
          <mxGeometry relative="1" as="geometry" />
        </mxCell>
        <mxCell id="1tVV-16rhZcyd84PS7nt-2" value="&lt;b&gt;&lt;font face=&quot;Courier New&quot;&gt;ident&lt;/font&gt;&lt;/b&gt;" style="ellipse;whiteSpace=wrap;html=1;" parent="1" vertex="1">
          <mxGeometry x="560" y="170" width="50" height="50" as="geometry" />
        </mxCell>
        <mxCell id="1tVV-16rhZcyd84PS7nt-5" style="edgeStyle=orthogonalEdgeStyle;rounded=0;orthogonalLoop=1;jettySize=auto;html=1;exitX=1;exitY=0.5;exitDx=0;exitDy=0;" parent="1" source="1tVV-16rhZcyd84PS7nt-3" edge="1">
          <mxGeometry relative="1" as="geometry">
            <mxPoint x="830" y="195" as="targetPoint" />
          </mxGeometry>
        </mxCell>
        <mxCell id="1tVV-16rhZcyd84PS7nt-3" value="&lt;font face=&quot;Courier New&quot;&gt;Declarador init&lt;/font&gt;" style="rounded=1;whiteSpace=wrap;html=1;" parent="1" vertex="1">
          <mxGeometry x="660" y="165" width="120" height="60" as="geometry" />
        </mxCell>
        <mxCell id="uVg7xh4Chk3SSQYkhi3Z-1" value="" style="endArrow=classic;startArrow=classic;html=1;rounded=0;" parent="1" edge="1">
          <mxGeometry width="50" height="50" relative="1" as="geometry">
            <mxPoint x="470" y="195" as="sourcePoint" />
            <mxPoint x="800" y="195" as="targetPoint" />
            <Array as="points">
              <mxPoint x="470" y="145" />
              <mxPoint x="540" y="145" />
              <mxPoint x="800" y="145" />
            </Array>
          </mxGeometry>
        </mxCell>
        <mxCell id="f1g__OppdZPTYhrR7YWZ-1" value="Declaración de variable" style="text;html=1;align=center;verticalAlign=middle;whiteSpace=wrap;rounded=0;fontFamily=Courier New;fontColor=#001DBC;" parent="1" vertex="1">
          <mxGeometry x="70" y="90" width="160" height="30" as="geometry" />
        </mxCell>
        <mxCell id="f1g__OppdZPTYhrR7YWZ-2" value="" style="endArrow=classic;html=1;rounded=0;" parent="1" edge="1">
          <mxGeometry width="50" height="50" relative="1" as="geometry">
            <mxPoint x="75" y="80" as="sourcePoint" />
            <mxPoint x="225" y="80" as="targetPoint" />
          </mxGeometry>
        </mxCell>
        <mxCell id="f1g__OppdZPTYhrR7YWZ-7" style="edgeStyle=orthogonalEdgeStyle;rounded=0;orthogonalLoop=1;jettySize=auto;html=1;exitX=1;exitY=0.5;exitDx=0;exitDy=0;entryX=0;entryY=0.5;entryDx=0;entryDy=0;" parent="1" source="f1g__OppdZPTYhrR7YWZ-3" target="f1g__OppdZPTYhrR7YWZ-4" edge="1">
          <mxGeometry relative="1" as="geometry" />
        </mxCell>
        <mxCell id="f1g__OppdZPTYhrR7YWZ-3" value="&lt;font face=&quot;Courier New&quot;&gt;Declarador init&lt;/font&gt;" style="rounded=1;whiteSpace=wrap;html=1;" parent="1" vertex="1">
          <mxGeometry x="226" y="50" width="120" height="60" as="geometry" />
        </mxCell>
        <mxCell id="f1g__OppdZPTYhrR7YWZ-8" style="edgeStyle=orthogonalEdgeStyle;rounded=0;orthogonalLoop=1;jettySize=auto;html=1;exitX=1;exitY=0.5;exitDx=0;exitDy=0;entryX=0;entryY=0.5;entryDx=0;entryDy=0;" parent="1" source="f1g__OppdZPTYhrR7YWZ-4" target="f1g__OppdZPTYhrR7YWZ-5" edge="1">
          <mxGeometry relative="1" as="geometry" />
        </mxCell>
        <mxCell id="f1g__OppdZPTYhrR7YWZ-4" value="&lt;font style=&quot;font-size: 16px;&quot;&gt;,&lt;/font&gt;" style="ellipse;whiteSpace=wrap;html=1;aspect=fixed;fontStyle=1" parent="1" vertex="1">
          <mxGeometry x="380" y="65" width="30" height="30" as="geometry" />
        </mxCell>
        <mxCell id="f1g__OppdZPTYhrR7YWZ-9" style="edgeStyle=orthogonalEdgeStyle;rounded=0;orthogonalLoop=1;jettySize=auto;html=1;exitX=1;exitY=0.5;exitDx=0;exitDy=0;entryX=0;entryY=0.5;entryDx=0;entryDy=0;" parent="1" source="f1g__OppdZPTYhrR7YWZ-5" target="f1g__OppdZPTYhrR7YWZ-6" edge="1">
          <mxGeometry relative="1" as="geometry" />
        </mxCell>
        <mxCell id="f1g__OppdZPTYhrR7YWZ-5" value="&lt;font face=&quot;Courier New&quot;&gt;Lista declaraciones init&lt;/font&gt;" style="rounded=1;whiteSpace=wrap;html=1;" parent="1" vertex="1">
          <mxGeometry x="445" y="50" width="145" height="60" as="geometry" />
        </mxCell>
        <mxCell id="f1g__OppdZPTYhrR7YWZ-6" value="&lt;font style=&quot;font-size: 16px;&quot;&gt;;&lt;/font&gt;" style="ellipse;whiteSpace=wrap;html=1;aspect=fixed;fontStyle=1" parent="1" vertex="1">
          <mxGeometry x="620" y="65" width="30" height="30" as="geometry" />
        </mxCell>
        <mxCell id="R1x7AbnlV1sls7q95q0w-1" value="" style="endArrow=classic;html=1;rounded=0;" parent="1" edge="1">
          <mxGeometry width="50" height="50" relative="1" as="geometry">
            <mxPoint x="275" y="363" as="sourcePoint" />
            <mxPoint x="390" y="363" as="targetPoint" />
            <Array as="points">
              <mxPoint x="275" y="333" />
              <mxPoint x="330" y="333" />
              <mxPoint x="390" y="333" />
            </Array>
          </mxGeometry>
        </mxCell>
        <mxCell id="mGk_dSq-G3wHTbkhF3X9-1" value="Declarador init" style="text;html=1;align=center;verticalAlign=middle;whiteSpace=wrap;rounded=0;fontFamily=Courier New;fontColor=#001DBC;" parent="1" vertex="1">
          <mxGeometry x="50" y="290" width="160" height="30" as="geometry" />
        </mxCell>
        <mxCell id="mGk_dSq-G3wHTbkhF3X9-2" value="" style="endArrow=classic;html=1;rounded=0;" parent="1" edge="1">
          <mxGeometry width="50" height="50" relative="1" as="geometry">
            <mxPoint x="80" y="284.5" as="sourcePoint" />
            <mxPoint x="230" y="284.5" as="targetPoint" />
          </mxGeometry>
        </mxCell>
        <mxCell id="mGk_dSq-G3wHTbkhF3X9-6" style="edgeStyle=orthogonalEdgeStyle;rounded=0;orthogonalLoop=1;jettySize=auto;html=1;exitX=1;exitY=0.5;exitDx=0;exitDy=0;" parent="1" source="mGk_dSq-G3wHTbkhF3X9-4" target="mGk_dSq-G3wHTbkhF3X9-5" edge="1">
          <mxGeometry relative="1" as="geometry" />
        </mxCell>
        <mxCell id="mGk_dSq-G3wHTbkhF3X9-4" value="&lt;font style=&quot;font-size: 16px;&quot;&gt;=&lt;/font&gt;" style="ellipse;whiteSpace=wrap;html=1;aspect=fixed;fontStyle=1" parent="1" vertex="1">
          <mxGeometry x="230" y="270" width="30" height="30" as="geometry" />
        </mxCell>
        <mxCell id="mGk_dSq-G3wHTbkhF3X9-15" style="edgeStyle=orthogonalEdgeStyle;rounded=0;orthogonalLoop=1;jettySize=auto;html=1;exitX=1;exitY=0.5;exitDx=0;exitDy=0;" parent="1" source="mGk_dSq-G3wHTbkhF3X9-5" edge="1">
          <mxGeometry relative="1" as="geometry">
            <mxPoint x="910" y="285" as="targetPoint" />
          </mxGeometry>
        </mxCell>
        <mxCell id="mGk_dSq-G3wHTbkhF3X9-5" value="&lt;font face=&quot;Courier New&quot;&gt;constante&lt;/font&gt;" style="rounded=1;whiteSpace=wrap;html=1;" parent="1" vertex="1">
          <mxGeometry x="290" y="262.5" width="80" height="45" as="geometry" />
        </mxCell>
        <mxCell id="q6blkH13nlA7rS9A7Jza-2" style="edgeStyle=orthogonalEdgeStyle;rounded=0;orthogonalLoop=1;jettySize=auto;html=1;exitX=1;exitY=0.5;exitDx=0;exitDy=0;" parent="1" source="mGk_dSq-G3wHTbkhF3X9-7" target="mGk_dSq-G3wHTbkhF3X9-8" edge="1">
          <mxGeometry relative="1" as="geometry" />
        </mxCell>
        <mxCell id="mGk_dSq-G3wHTbkhF3X9-7" value="&lt;span style=&quot;font-size: 16px;&quot;&gt;[&lt;/span&gt;" style="ellipse;whiteSpace=wrap;html=1;aspect=fixed;fontStyle=1" parent="1" vertex="1">
          <mxGeometry x="230" y="350" width="30" height="30" as="geometry" />
        </mxCell>
        <mxCell id="q6blkH13nlA7rS9A7Jza-4" style="edgeStyle=orthogonalEdgeStyle;rounded=0;orthogonalLoop=1;jettySize=auto;html=1;exitX=1;exitY=0.5;exitDx=0;exitDy=0;entryX=0;entryY=0.5;entryDx=0;entryDy=0;" parent="1" source="mGk_dSq-G3wHTbkhF3X9-8" target="mGk_dSq-G3wHTbkhF3X9-9" edge="1">
          <mxGeometry relative="1" as="geometry" />
        </mxCell>
        <mxCell id="mGk_dSq-G3wHTbkhF3X9-8" value="&lt;b&gt;&lt;font face=&quot;Courier New&quot;&gt;cons_ent&lt;/font&gt;&lt;/b&gt;" style="ellipse;whiteSpace=wrap;html=1;" parent="1" vertex="1">
          <mxGeometry x="296" y="340" width="84" height="50" as="geometry" />
        </mxCell>
        <mxCell id="q6blkH13nlA7rS9A7Jza-6" style="edgeStyle=orthogonalEdgeStyle;rounded=0;orthogonalLoop=1;jettySize=auto;html=1;exitX=1;exitY=0.5;exitDx=0;exitDy=0;entryX=0;entryY=0.5;entryDx=0;entryDy=0;" parent="1" source="mGk_dSq-G3wHTbkhF3X9-9" target="mGk_dSq-G3wHTbkhF3X9-11" edge="1">
          <mxGeometry relative="1" as="geometry" />
        </mxCell>
        <mxCell id="mGk_dSq-G3wHTbkhF3X9-9" value="&lt;span style=&quot;font-size: 16px;&quot;&gt;]&lt;/span&gt;" style="ellipse;whiteSpace=wrap;html=1;aspect=fixed;fontStyle=1" parent="1" vertex="1">
          <mxGeometry x="415" y="350" width="30" height="30" as="geometry" />
        </mxCell>
        <mxCell id="q6blkH13nlA7rS9A7Jza-7" style="edgeStyle=orthogonalEdgeStyle;rounded=0;orthogonalLoop=1;jettySize=auto;html=1;exitX=1;exitY=0.5;exitDx=0;exitDy=0;entryX=0;entryY=0.5;entryDx=0;entryDy=0;" parent="1" source="mGk_dSq-G3wHTbkhF3X9-11" target="mGk_dSq-G3wHTbkhF3X9-12" edge="1">
          <mxGeometry relative="1" as="geometry" />
        </mxCell>
        <mxCell id="mGk_dSq-G3wHTbkhF3X9-11" value="&lt;font style=&quot;font-size: 16px;&quot;&gt;=&lt;/font&gt;" style="ellipse;whiteSpace=wrap;html=1;aspect=fixed;fontStyle=1" parent="1" vertex="1">
          <mxGeometry x="480" y="350" width="30" height="30" as="geometry" />
        </mxCell>
        <mxCell id="q6blkH13nlA7rS9A7Jza-8" style="edgeStyle=orthogonalEdgeStyle;rounded=0;orthogonalLoop=1;jettySize=auto;html=1;exitX=1;exitY=0.5;exitDx=0;exitDy=0;entryX=0;entryY=0.5;entryDx=0;entryDy=0;" parent="1" source="mGk_dSq-G3wHTbkhF3X9-12" target="mGk_dSq-G3wHTbkhF3X9-13" edge="1">
          <mxGeometry relative="1" as="geometry" />
        </mxCell>
        <mxCell id="mGk_dSq-G3wHTbkhF3X9-12" value="&lt;font style=&quot;font-size: 16px;&quot;&gt;{&lt;/font&gt;" style="ellipse;whiteSpace=wrap;html=1;aspect=fixed;fontStyle=1" parent="1" vertex="1">
          <mxGeometry x="550" y="350" width="30" height="30" as="geometry" />
        </mxCell>
        <mxCell id="q6blkH13nlA7rS9A7Jza-9" style="edgeStyle=orthogonalEdgeStyle;rounded=0;orthogonalLoop=1;jettySize=auto;html=1;exitX=1;exitY=0.5;exitDx=0;exitDy=0;" parent="1" source="mGk_dSq-G3wHTbkhF3X9-13" target="mGk_dSq-G3wHTbkhF3X9-14" edge="1">
          <mxGeometry relative="1" as="geometry" />
        </mxCell>
        <mxCell id="mGk_dSq-G3wHTbkhF3X9-13" value="&lt;font face=&quot;Courier New&quot;&gt;Lista de inicializadores&lt;/font&gt;" style="rounded=1;whiteSpace=wrap;html=1;" parent="1" vertex="1">
          <mxGeometry x="610" y="335" width="145" height="60" as="geometry" />
        </mxCell>
        <mxCell id="mGk_dSq-G3wHTbkhF3X9-14" value="&lt;font style=&quot;font-size: 16px;&quot;&gt;}&lt;/font&gt;" style="ellipse;whiteSpace=wrap;html=1;aspect=fixed;fontStyle=1" parent="1" vertex="1">
          <mxGeometry x="790" y="350" width="30" height="30" as="geometry" />
        </mxCell>
        <mxCell id="q6blkH13nlA7rS9A7Jza-1" value="" style="endArrow=classic;html=1;rounded=0;entryX=0;entryY=0.5;entryDx=0;entryDy=0;" parent="1" target="mGk_dSq-G3wHTbkhF3X9-7" edge="1">
          <mxGeometry width="50" height="50" relative="1" as="geometry">
            <mxPoint x="205" y="285" as="sourcePoint" />
            <mxPoint x="230" y="350" as="targetPoint" />
            <Array as="points">
              <mxPoint x="205" y="365" />
            </Array>
          </mxGeometry>
        </mxCell>
        <mxCell id="vM2-L9RZQqC8NVuznZ4F-1" value="" style="endArrow=classic;html=1;rounded=0;" parent="1" edge="1">
          <mxGeometry width="50" height="50" relative="1" as="geometry">
            <mxPoint x="363" y="80" as="sourcePoint" />
            <mxPoint x="603" y="80" as="targetPoint" />
            <Array as="points">
              <mxPoint x="363" y="40" />
              <mxPoint x="603" y="40" />
            </Array>
          </mxGeometry>
        </mxCell>
        <mxCell id="vM2-L9RZQqC8NVuznZ4F-4" value="" style="endArrow=classic;html=1;rounded=0;" parent="1" edge="1">
          <mxGeometry width="50" height="50" relative="1" as="geometry">
            <mxPoint x="460" y="365" as="sourcePoint" />
            <mxPoint x="840" y="365" as="targetPoint" />
            <Array as="points">
              <mxPoint x="460" y="320" />
              <mxPoint x="510" y="320" />
              <mxPoint x="840" y="320" />
            </Array>
          </mxGeometry>
        </mxCell>
        <mxCell id="zVCu4eNOokKV0uS5Te_Y-1" value="" style="endArrow=none;html=1;rounded=0;exitX=1;exitY=0.5;exitDx=0;exitDy=0;" parent="1" edge="1">
          <mxGeometry width="50" height="50" relative="1" as="geometry">
            <mxPoint x="820" y="365" as="sourcePoint" />
            <mxPoint x="870" y="290" as="targetPoint" />
            <Array as="points">
              <mxPoint x="870" y="365" />
            </Array>
          </mxGeometry>
        </mxCell>
        <mxCell id="zVCu4eNOokKV0uS5Te_Y-2" value="Lista de inicializadores" style="text;html=1;align=center;verticalAlign=middle;whiteSpace=wrap;rounded=0;fontFamily=Courier New;fontColor=#001DBC;" parent="1" vertex="1">
          <mxGeometry x="70" y="470" width="160" height="30" as="geometry" />
        </mxCell>
        <mxCell id="zVCu4eNOokKV0uS5Te_Y-3" value="" style="endArrow=classic;html=1;rounded=0;" parent="1" edge="1">
          <mxGeometry width="50" height="50" relative="1" as="geometry">
            <mxPoint x="75" y="460" as="sourcePoint" />
            <mxPoint x="225" y="460" as="targetPoint" />
          </mxGeometry>
        </mxCell>
        <mxCell id="zVCu4eNOokKV0uS5Te_Y-4" style="edgeStyle=orthogonalEdgeStyle;rounded=0;orthogonalLoop=1;jettySize=auto;html=1;exitX=1;exitY=0.5;exitDx=0;exitDy=0;entryX=0;entryY=0.5;entryDx=0;entryDy=0;" parent="1" edge="1">
          <mxGeometry relative="1" as="geometry">
            <mxPoint x="311" y="460" as="sourcePoint" />
            <mxPoint x="344.9999999999786" y="460" as="targetPoint" />
          </mxGeometry>
        </mxCell>
        <mxCell id="zVCu4eNOokKV0uS5Te_Y-6" style="edgeStyle=orthogonalEdgeStyle;rounded=0;orthogonalLoop=1;jettySize=auto;html=1;exitX=1;exitY=0.5;exitDx=0;exitDy=0;" parent="1" source="zVCu4eNOokKV0uS5Te_Y-7" edge="1">
          <mxGeometry relative="1" as="geometry">
            <mxPoint x="400" y="460" as="targetPoint" />
          </mxGeometry>
        </mxCell>
        <mxCell id="zVCu4eNOokKV0uS5Te_Y-7" value="&lt;font style=&quot;font-size: 16px;&quot;&gt;,&lt;/font&gt;" style="ellipse;whiteSpace=wrap;html=1;aspect=fixed;fontStyle=1" parent="1" vertex="1">
          <mxGeometry x="346" y="445" width="30" height="30" as="geometry" />
        </mxCell>
        <mxCell id="zVCu4eNOokKV0uS5Te_Y-8" style="edgeStyle=orthogonalEdgeStyle;rounded=0;orthogonalLoop=1;jettySize=auto;html=1;exitX=1;exitY=0.5;exitDx=0;exitDy=0;" parent="1" edge="1">
          <mxGeometry relative="1" as="geometry">
            <mxPoint x="480" y="459.58" as="sourcePoint" />
            <mxPoint x="540" y="460" as="targetPoint" />
          </mxGeometry>
        </mxCell>
        <mxCell id="zVCu4eNOokKV0uS5Te_Y-12" value="&lt;font face=&quot;Courier New&quot;&gt;constante&lt;/font&gt;" style="rounded=1;whiteSpace=wrap;html=1;" parent="1" vertex="1">
          <mxGeometry x="230" y="437.5" width="80" height="45" as="geometry" />
        </mxCell>
        <mxCell id="zVCu4eNOokKV0uS5Te_Y-13" value="&lt;font face=&quot;Courier New&quot;&gt;constante&lt;/font&gt;" style="rounded=1;whiteSpace=wrap;html=1;" parent="1" vertex="1">
          <mxGeometry x="400" y="437.5" width="80" height="45" as="geometry" />
        </mxCell>
        <mxCell id="aMBz7iwOtEfbnqGolUJ0-1" value="" style="endArrow=classic;startArrow=classic;html=1;rounded=0;" parent="1" edge="1">
          <mxGeometry width="50" height="50" relative="1" as="geometry">
            <mxPoint x="320" y="460" as="sourcePoint" />
            <mxPoint x="500" y="460" as="targetPoint" />
            <Array as="points">
              <mxPoint x="320" y="420" />
              <mxPoint x="390" y="420" />
              <mxPoint x="500" y="420" />
            </Array>
          </mxGeometry>
        </mxCell>
        <mxCell id="K1hdWqBjEezNnCZ-2N9J-1" value="" style="endArrow=classic;html=1;rounded=0;" edge="1" parent="1">
          <mxGeometry width="50" height="50" relative="1" as="geometry">
            <mxPoint x="205" y="296" as="sourcePoint" />
            <mxPoint x="890" y="286" as="targetPoint" />
            <Array as="points">
              <mxPoint x="205" y="256" />
              <mxPoint x="890" y="256" />
            </Array>
          </mxGeometry>
        </mxCell>
      </root>
    </mxGraphModel>
  </diagram>
  <diagram id="bK7mW2T3DxghnQVuSx5F" name="funciones">
    <mxGraphModel dx="438" dy="843" grid="1" gridSize="10" guides="1" tooltips="1" connect="1" arrows="1" fold="1" page="1" pageScale="1" pageWidth="850" pageHeight="1100" math="0" shadow="0">
      <root>
        <mxCell id="0" />
        <mxCell id="1" parent="0" />
        <mxCell id="1rc33zzdGo77KUJzTyhU-1" value="Definición de función" style="text;html=1;align=center;verticalAlign=middle;whiteSpace=wrap;rounded=0;fontFamily=Courier New;fontColor=#001DBC;" parent="1" vertex="1">
          <mxGeometry x="60" y="200" width="160" height="30" as="geometry" />
        </mxCell>
        <mxCell id="1rc33zzdGo77KUJzTyhU-2" value="" style="endArrow=classic;html=1;rounded=0;" parent="1" edge="1">
          <mxGeometry width="50" height="50" relative="1" as="geometry">
            <mxPoint x="70" y="194.5" as="sourcePoint" />
            <mxPoint x="220" y="194.5" as="targetPoint" />
          </mxGeometry>
        </mxCell>
        <mxCell id="1rc33zzdGo77KUJzTyhU-3" style="edgeStyle=orthogonalEdgeStyle;rounded=0;orthogonalLoop=1;jettySize=auto;html=1;exitX=1;exitY=0.5;exitDx=0;exitDy=0;entryX=0;entryY=0.5;entryDx=0;entryDy=0;" parent="1" source="HNjUx85w_OyboezheAXD-1" target="1rc33zzdGo77KUJzTyhU-6" edge="1">
          <mxGeometry relative="1" as="geometry">
            <mxPoint x="270" y="195" as="sourcePoint" />
          </mxGeometry>
        </mxCell>
        <mxCell id="1rc33zzdGo77KUJzTyhU-5" style="edgeStyle=orthogonalEdgeStyle;rounded=0;orthogonalLoop=1;jettySize=auto;html=1;exitX=1;exitY=0.5;exitDx=0;exitDy=0;entryX=0;entryY=0.5;entryDx=0;entryDy=0;" parent="1" source="1rc33zzdGo77KUJzTyhU-6" target="1rc33zzdGo77KUJzTyhU-8" edge="1">
          <mxGeometry relative="1" as="geometry" />
        </mxCell>
        <mxCell id="1rc33zzdGo77KUJzTyhU-6" value="&lt;font face=&quot;Courier New&quot;&gt;Lista declaración de parámetros&lt;/font&gt;" style="rounded=1;whiteSpace=wrap;html=1;" parent="1" vertex="1">
          <mxGeometry x="290" y="165" width="120" height="60" as="geometry" />
        </mxCell>
        <mxCell id="HNjUx85w_OyboezheAXD-2" style="edgeStyle=orthogonalEdgeStyle;rounded=0;orthogonalLoop=1;jettySize=auto;html=1;exitX=1;exitY=0.5;exitDx=0;exitDy=0;entryX=0;entryY=0.5;entryDx=0;entryDy=0;" parent="1" source="1rc33zzdGo77KUJzTyhU-8" target="1rc33zzdGo77KUJzTyhU-12" edge="1">
          <mxGeometry relative="1" as="geometry" />
        </mxCell>
        <mxCell id="1rc33zzdGo77KUJzTyhU-8" value="&lt;font style=&quot;font-size: 16px;&quot;&gt;)&lt;/font&gt;" style="ellipse;whiteSpace=wrap;html=1;aspect=fixed;fontStyle=1" parent="1" vertex="1">
          <mxGeometry x="450" y="180" width="30" height="30" as="geometry" />
        </mxCell>
        <mxCell id="1rc33zzdGo77KUJzTyhU-11" style="edgeStyle=orthogonalEdgeStyle;rounded=0;orthogonalLoop=1;jettySize=auto;html=1;exitX=1;exitY=0.5;exitDx=0;exitDy=0;" parent="1" source="1rc33zzdGo77KUJzTyhU-12" edge="1">
          <mxGeometry relative="1" as="geometry">
            <mxPoint x="690" y="195" as="targetPoint" />
          </mxGeometry>
        </mxCell>
        <mxCell id="1rc33zzdGo77KUJzTyhU-12" value="&lt;font face=&quot;Courier New&quot;&gt;Proposición compuesta&lt;/font&gt;" style="rounded=1;whiteSpace=wrap;html=1;" parent="1" vertex="1">
          <mxGeometry x="520" y="165" width="120" height="60" as="geometry" />
        </mxCell>
        <mxCell id="HNjUx85w_OyboezheAXD-1" value="&lt;font style=&quot;font-size: 16px;&quot;&gt;(&lt;/font&gt;" style="ellipse;whiteSpace=wrap;html=1;aspect=fixed;fontStyle=1" parent="1" vertex="1">
          <mxGeometry x="220" y="180" width="30" height="30" as="geometry" />
        </mxCell>
        <mxCell id="BQsjNMfn_fZd8_LMEYVH-1" value="" style="endArrow=classic;html=1;rounded=0;" parent="1" edge="1">
          <mxGeometry width="50" height="50" relative="1" as="geometry">
            <mxPoint x="270" y="196" as="sourcePoint" />
            <mxPoint x="426" y="196" as="targetPoint" />
            <Array as="points">
              <mxPoint x="270" y="156" />
              <mxPoint x="426" y="156" />
            </Array>
          </mxGeometry>
        </mxCell>
        <mxCell id="aJlmtgCpojrv3wt9YJx--1" value="Lista declaración de parámetros" style="text;html=1;align=center;verticalAlign=middle;whiteSpace=wrap;rounded=0;fontFamily=Courier New;fontColor=#001DBC;" parent="1" vertex="1">
          <mxGeometry x="60" y="310" width="160" height="30" as="geometry" />
        </mxCell>
        <mxCell id="aJlmtgCpojrv3wt9YJx--2" value="" style="endArrow=classic;html=1;rounded=0;" parent="1" edge="1">
          <mxGeometry width="50" height="50" relative="1" as="geometry">
            <mxPoint x="65" y="300" as="sourcePoint" />
            <mxPoint x="215" y="300" as="targetPoint" />
          </mxGeometry>
        </mxCell>
        <mxCell id="aJlmtgCpojrv3wt9YJx--3" style="edgeStyle=orthogonalEdgeStyle;rounded=0;orthogonalLoop=1;jettySize=auto;html=1;exitX=1;exitY=0.5;exitDx=0;exitDy=0;entryX=0;entryY=0.5;entryDx=0;entryDy=0;" parent="1" edge="1">
          <mxGeometry relative="1" as="geometry">
            <mxPoint x="301" y="300" as="sourcePoint" />
            <mxPoint x="334.9999999999786" y="300" as="targetPoint" />
          </mxGeometry>
        </mxCell>
        <mxCell id="aJlmtgCpojrv3wt9YJx--4" style="edgeStyle=orthogonalEdgeStyle;rounded=0;orthogonalLoop=1;jettySize=auto;html=1;exitX=1;exitY=0.5;exitDx=0;exitDy=0;" parent="1" source="aJlmtgCpojrv3wt9YJx--5" edge="1">
          <mxGeometry relative="1" as="geometry">
            <mxPoint x="390" y="300" as="targetPoint" />
          </mxGeometry>
        </mxCell>
        <mxCell id="aJlmtgCpojrv3wt9YJx--5" value="&lt;font style=&quot;font-size: 16px;&quot;&gt;,&lt;/font&gt;" style="ellipse;whiteSpace=wrap;html=1;aspect=fixed;fontStyle=1" parent="1" vertex="1">
          <mxGeometry x="336" y="285" width="30" height="30" as="geometry" />
        </mxCell>
        <mxCell id="aJlmtgCpojrv3wt9YJx--6" style="edgeStyle=orthogonalEdgeStyle;rounded=0;orthogonalLoop=1;jettySize=auto;html=1;exitX=1;exitY=0.5;exitDx=0;exitDy=0;" parent="1" edge="1">
          <mxGeometry relative="1" as="geometry">
            <mxPoint x="470" y="299.58" as="sourcePoint" />
            <mxPoint x="530" y="300" as="targetPoint" />
          </mxGeometry>
        </mxCell>
        <mxCell id="aJlmtgCpojrv3wt9YJx--7" value="&lt;font face=&quot;Courier New&quot;&gt;Declaración de parámetro&lt;/font&gt;" style="rounded=1;whiteSpace=wrap;html=1;" parent="1" vertex="1">
          <mxGeometry x="220" y="277.5" width="90" height="45" as="geometry" />
        </mxCell>
        <mxCell id="aJlmtgCpojrv3wt9YJx--9" value="" style="endArrow=classic;startArrow=classic;html=1;rounded=0;" parent="1" edge="1">
          <mxGeometry width="50" height="50" relative="1" as="geometry">
            <mxPoint x="319" y="300" as="sourcePoint" />
            <mxPoint x="499" y="300" as="targetPoint" />
            <Array as="points">
              <mxPoint x="319" y="260" />
              <mxPoint x="389" y="260" />
              <mxPoint x="499" y="260" />
            </Array>
          </mxGeometry>
        </mxCell>
        <mxCell id="yZ37PB7Hro_ydSi4SKE1-1" value="&lt;font face=&quot;Courier New&quot;&gt;Declaración de parámetro&lt;/font&gt;" style="rounded=1;whiteSpace=wrap;html=1;" parent="1" vertex="1">
          <mxGeometry x="390" y="277.5" width="90" height="45" as="geometry" />
        </mxCell>
        <mxCell id="yZ37PB7Hro_ydSi4SKE1-3" value="Declaración de parámetro" style="text;html=1;align=center;verticalAlign=middle;whiteSpace=wrap;rounded=0;fontFamily=Courier New;fontColor=#001DBC;" parent="1" vertex="1">
          <mxGeometry x="60" y="410" width="160" height="30" as="geometry" />
        </mxCell>
        <mxCell id="yZ37PB7Hro_ydSi4SKE1-4" value="" style="endArrow=classic;html=1;rounded=0;" parent="1" edge="1">
          <mxGeometry width="50" height="50" relative="1" as="geometry">
            <mxPoint x="70" y="404.5" as="sourcePoint" />
            <mxPoint x="220" y="404.5" as="targetPoint" />
          </mxGeometry>
        </mxCell>
        <mxCell id="MCm3jwq6CBXyddoEk1bh-2" style="edgeStyle=orthogonalEdgeStyle;rounded=0;orthogonalLoop=1;jettySize=auto;html=1;exitX=1;exitY=0.5;exitDx=0;exitDy=0;entryX=0;entryY=0.5;entryDx=0;entryDy=0;" parent="1" source="yZ37PB7Hro_ydSi4SKE1-6" target="yZ37PB7Hro_ydSi4SKE1-7" edge="1">
          <mxGeometry relative="1" as="geometry" />
        </mxCell>
        <mxCell id="yZ37PB7Hro_ydSi4SKE1-6" value="Especificador de tipo" style="rounded=1;whiteSpace=wrap;html=1;" parent="1" vertex="1">
          <mxGeometry x="220" y="380" width="90" height="45" as="geometry" />
        </mxCell>
        <mxCell id="MCm3jwq6CBXyddoEk1bh-3" style="edgeStyle=orthogonalEdgeStyle;rounded=0;orthogonalLoop=1;jettySize=auto;html=1;exitX=1;exitY=0.5;exitDx=0;exitDy=0;entryX=0;entryY=0.5;entryDx=0;entryDy=0;" parent="1" source="yZ37PB7Hro_ydSi4SKE1-7" target="MCm3jwq6CBXyddoEk1bh-1" edge="1">
          <mxGeometry relative="1" as="geometry" />
        </mxCell>
        <mxCell id="yZ37PB7Hro_ydSi4SKE1-7" value="&lt;font style=&quot;font-size: 16px;&quot;&gt;&amp;amp;&lt;/font&gt;" style="ellipse;whiteSpace=wrap;html=1;aspect=fixed;fontStyle=1" parent="1" vertex="1">
          <mxGeometry x="336" y="387.5" width="30" height="30" as="geometry" />
        </mxCell>
        <mxCell id="MCm3jwq6CBXyddoEk1bh-7" style="edgeStyle=orthogonalEdgeStyle;rounded=0;orthogonalLoop=1;jettySize=auto;html=1;exitX=1;exitY=0.5;exitDx=0;exitDy=0;" parent="1" source="MCm3jwq6CBXyddoEk1bh-1" target="MCm3jwq6CBXyddoEk1bh-5" edge="1">
          <mxGeometry relative="1" as="geometry" />
        </mxCell>
        <mxCell id="MCm3jwq6CBXyddoEk1bh-1" value="&lt;b&gt;&lt;font face=&quot;Courier New&quot;&gt;ident&lt;/font&gt;&lt;/b&gt;" style="ellipse;whiteSpace=wrap;html=1;" parent="1" vertex="1">
          <mxGeometry x="390" y="377.5" width="50" height="50" as="geometry" />
        </mxCell>
        <mxCell id="MCm3jwq6CBXyddoEk1bh-8" style="edgeStyle=orthogonalEdgeStyle;rounded=0;orthogonalLoop=1;jettySize=auto;html=1;exitX=1;exitY=0.5;exitDx=0;exitDy=0;entryX=0;entryY=0.5;entryDx=0;entryDy=0;" parent="1" source="MCm3jwq6CBXyddoEk1bh-5" target="MCm3jwq6CBXyddoEk1bh-6" edge="1">
          <mxGeometry relative="1" as="geometry" />
        </mxCell>
        <mxCell id="MCm3jwq6CBXyddoEk1bh-5" value="&lt;font style=&quot;font-size: 16px;&quot;&gt;[&lt;/font&gt;" style="ellipse;whiteSpace=wrap;html=1;aspect=fixed;fontStyle=1" parent="1" vertex="1">
          <mxGeometry x="480" y="387.5" width="30" height="30" as="geometry" />
        </mxCell>
        <mxCell id="MCm3jwq6CBXyddoEk1bh-10" style="edgeStyle=orthogonalEdgeStyle;rounded=0;orthogonalLoop=1;jettySize=auto;html=1;exitX=1;exitY=0.5;exitDx=0;exitDy=0;" parent="1" source="MCm3jwq6CBXyddoEk1bh-6" edge="1">
          <mxGeometry relative="1" as="geometry">
            <mxPoint x="590" y="403" as="targetPoint" />
          </mxGeometry>
        </mxCell>
        <mxCell id="MCm3jwq6CBXyddoEk1bh-6" value="&lt;font style=&quot;font-size: 16px;&quot;&gt;]&lt;/font&gt;" style="ellipse;whiteSpace=wrap;html=1;aspect=fixed;fontStyle=1" parent="1" vertex="1">
          <mxGeometry x="530" y="387.5" width="30" height="30" as="geometry" />
        </mxCell>
        <mxCell id="MCm3jwq6CBXyddoEk1bh-11" value="" style="endArrow=classic;html=1;rounded=0;" parent="1" edge="1">
          <mxGeometry width="50" height="50" relative="1" as="geometry">
            <mxPoint x="319" y="402" as="sourcePoint" />
            <mxPoint x="379" y="402" as="targetPoint" />
            <Array as="points">
              <mxPoint x="319" y="380" />
              <mxPoint x="349" y="380" />
              <mxPoint x="379" y="380" />
            </Array>
          </mxGeometry>
        </mxCell>
        <mxCell id="MCm3jwq6CBXyddoEk1bh-12" value="" style="endArrow=classic;html=1;rounded=0;" parent="1" edge="1">
          <mxGeometry width="50" height="50" relative="1" as="geometry">
            <mxPoint x="451" y="402.5" as="sourcePoint" />
            <mxPoint x="571" y="403" as="targetPoint" />
            <Array as="points">
              <mxPoint x="451" y="380.5" />
              <mxPoint x="481" y="380.5" />
              <mxPoint x="571" y="381" />
            </Array>
          </mxGeometry>
        </mxCell>
        <mxCell id="YLe_OgKcV57cbverne5j-1" value="Proposición compuesta" style="text;html=1;align=center;verticalAlign=middle;whiteSpace=wrap;rounded=0;fontFamily=Courier New;fontColor=#001DBC;labelBackgroundColor=none;" parent="1" vertex="1">
          <mxGeometry x="60" y="494" width="160" height="30" as="geometry" />
        </mxCell>
        <mxCell id="YLe_OgKcV57cbverne5j-2" value="" style="endArrow=classic;html=1;rounded=0;" parent="1" edge="1">
          <mxGeometry width="50" height="50" relative="1" as="geometry">
            <mxPoint x="70" y="488.5" as="sourcePoint" />
            <mxPoint x="220" y="488.5" as="targetPoint" />
          </mxGeometry>
        </mxCell>
        <mxCell id="YLe_OgKcV57cbverne5j-3" style="edgeStyle=orthogonalEdgeStyle;rounded=0;orthogonalLoop=1;jettySize=auto;html=1;exitX=1;exitY=0.5;exitDx=0;exitDy=0;entryX=0;entryY=0.5;entryDx=0;entryDy=0;" parent="1" source="YLe_OgKcV57cbverne5j-10" target="YLe_OgKcV57cbverne5j-5" edge="1">
          <mxGeometry relative="1" as="geometry">
            <mxPoint x="270" y="489" as="sourcePoint" />
          </mxGeometry>
        </mxCell>
        <mxCell id="YLe_OgKcV57cbverne5j-12" style="edgeStyle=orthogonalEdgeStyle;rounded=0;orthogonalLoop=1;jettySize=auto;html=1;exitX=1;exitY=0.5;exitDx=0;exitDy=0;" parent="1" source="YLe_OgKcV57cbverne5j-5" target="YLe_OgKcV57cbverne5j-9" edge="1">
          <mxGeometry relative="1" as="geometry" />
        </mxCell>
        <mxCell id="YLe_OgKcV57cbverne5j-5" value="&lt;font face=&quot;Courier New&quot;&gt;Lista de declaraciones&lt;/font&gt;" style="rounded=1;whiteSpace=wrap;html=1;" parent="1" vertex="1">
          <mxGeometry x="290" y="459" width="120" height="60" as="geometry" />
        </mxCell>
        <mxCell id="YLe_OgKcV57cbverne5j-14" style="edgeStyle=orthogonalEdgeStyle;rounded=0;orthogonalLoop=1;jettySize=auto;html=1;exitX=1;exitY=0.5;exitDx=0;exitDy=0;" parent="1" source="YLe_OgKcV57cbverne5j-7" edge="1">
          <mxGeometry relative="1" as="geometry">
            <mxPoint x="690" y="489" as="targetPoint" />
          </mxGeometry>
        </mxCell>
        <mxCell id="YLe_OgKcV57cbverne5j-7" value="&lt;span style=&quot;font-size: 16px;&quot;&gt;}&lt;/span&gt;" style="ellipse;whiteSpace=wrap;html=1;aspect=fixed;fontStyle=1" parent="1" vertex="1">
          <mxGeometry x="610" y="474" width="30" height="30" as="geometry" />
        </mxCell>
        <mxCell id="YLe_OgKcV57cbverne5j-13" style="edgeStyle=orthogonalEdgeStyle;rounded=0;orthogonalLoop=1;jettySize=auto;html=1;exitX=1;exitY=0.5;exitDx=0;exitDy=0;entryX=0;entryY=0.5;entryDx=0;entryDy=0;" parent="1" source="YLe_OgKcV57cbverne5j-9" target="YLe_OgKcV57cbverne5j-7" edge="1">
          <mxGeometry relative="1" as="geometry" />
        </mxCell>
        <mxCell id="YLe_OgKcV57cbverne5j-9" value="&lt;font face=&quot;Courier New&quot;&gt;Lista de proposiciones&lt;/font&gt;" style="rounded=1;whiteSpace=wrap;html=1;" parent="1" vertex="1">
          <mxGeometry x="450" y="459" width="120" height="60" as="geometry" />
        </mxCell>
        <mxCell id="YLe_OgKcV57cbverne5j-10" value="&lt;font style=&quot;font-size: 16px;&quot;&gt;{&lt;/font&gt;" style="ellipse;whiteSpace=wrap;html=1;aspect=fixed;fontStyle=1" parent="1" vertex="1">
          <mxGeometry x="220" y="474" width="30" height="30" as="geometry" />
        </mxCell>
        <mxCell id="YLe_OgKcV57cbverne5j-11" value="" style="endArrow=classic;html=1;rounded=0;" parent="1" edge="1">
          <mxGeometry width="50" height="50" relative="1" as="geometry">
            <mxPoint x="265" y="490" as="sourcePoint" />
            <mxPoint x="421" y="490" as="targetPoint" />
            <Array as="points">
              <mxPoint x="265" y="450" />
              <mxPoint x="421" y="450" />
            </Array>
          </mxGeometry>
        </mxCell>
        <mxCell id="YLe_OgKcV57cbverne5j-26" value="" style="endArrow=classic;html=1;rounded=0;" parent="1" edge="1">
          <mxGeometry width="50" height="50" relative="1" as="geometry">
            <mxPoint x="432" y="490" as="sourcePoint" />
            <mxPoint x="588" y="490" as="targetPoint" />
            <Array as="points">
              <mxPoint x="432" y="450" />
              <mxPoint x="588" y="450" />
            </Array>
          </mxGeometry>
        </mxCell>
        <mxCell id="YLe_OgKcV57cbverne5j-28" value="Lista de declaraciones" style="text;html=1;align=center;verticalAlign=middle;whiteSpace=wrap;rounded=0;fontFamily=Courier New;fontColor=#001DBC;" parent="1" vertex="1">
          <mxGeometry x="60" y="600" width="160" height="30" as="geometry" />
        </mxCell>
        <mxCell id="YLe_OgKcV57cbverne5j-29" value="" style="endArrow=classic;html=1;rounded=0;" parent="1" edge="1">
          <mxGeometry width="50" height="50" relative="1" as="geometry">
            <mxPoint x="65" y="590" as="sourcePoint" />
            <mxPoint x="215" y="590" as="targetPoint" />
          </mxGeometry>
        </mxCell>
        <mxCell id="YLe_OgKcV57cbverne5j-30" style="edgeStyle=orthogonalEdgeStyle;rounded=0;orthogonalLoop=1;jettySize=auto;html=1;exitX=1;exitY=0.5;exitDx=0;exitDy=0;entryX=0;entryY=0.5;entryDx=0;entryDy=0;" parent="1" edge="1">
          <mxGeometry relative="1" as="geometry">
            <mxPoint x="301" y="590" as="sourcePoint" />
            <mxPoint x="334.9999999999786" y="590" as="targetPoint" />
          </mxGeometry>
        </mxCell>
        <mxCell id="YLe_OgKcV57cbverne5j-33" style="edgeStyle=orthogonalEdgeStyle;rounded=0;orthogonalLoop=1;jettySize=auto;html=1;exitX=1;exitY=0.5;exitDx=0;exitDy=0;" parent="1" edge="1">
          <mxGeometry relative="1" as="geometry">
            <mxPoint x="425" y="589.4999999999999" as="sourcePoint" />
            <mxPoint x="460" y="590" as="targetPoint" />
          </mxGeometry>
        </mxCell>
        <mxCell id="YLe_OgKcV57cbverne5j-34" value="&lt;font face=&quot;Courier New&quot;&gt;Declaración&lt;/font&gt;" style="rounded=1;whiteSpace=wrap;html=1;" parent="1" vertex="1">
          <mxGeometry x="220" y="567.5" width="90" height="45" as="geometry" />
        </mxCell>
        <mxCell id="YLe_OgKcV57cbverne5j-35" value="" style="endArrow=classic;startArrow=classic;html=1;rounded=0;" parent="1" edge="1">
          <mxGeometry width="50" height="50" relative="1" as="geometry">
            <mxPoint x="319" y="590" as="sourcePoint" />
            <mxPoint x="440" y="590" as="targetPoint" />
            <Array as="points">
              <mxPoint x="319" y="550" />
              <mxPoint x="389" y="550" />
              <mxPoint x="440" y="550" />
            </Array>
          </mxGeometry>
        </mxCell>
        <mxCell id="YLe_OgKcV57cbverne5j-36" value="&lt;font face=&quot;Courier New&quot;&gt;Declaración&lt;/font&gt;" style="rounded=1;whiteSpace=wrap;html=1;" parent="1" vertex="1">
          <mxGeometry x="335" y="567.5" width="90" height="45" as="geometry" />
        </mxCell>
        <mxCell id="T02WxVcFiFh7YekMpUO0-1" value="Declaración" style="text;html=1;align=center;verticalAlign=middle;whiteSpace=wrap;rounded=0;fontFamily=Courier New;fontColor=#001DBC;" parent="1" vertex="1">
          <mxGeometry x="60" y="680" width="160" height="30" as="geometry" />
        </mxCell>
        <mxCell id="T02WxVcFiFh7YekMpUO0-2" value="" style="endArrow=classic;html=1;rounded=0;" parent="1" edge="1">
          <mxGeometry width="50" height="50" relative="1" as="geometry">
            <mxPoint x="65" y="670" as="sourcePoint" />
            <mxPoint x="215" y="670" as="targetPoint" />
          </mxGeometry>
        </mxCell>
        <mxCell id="T02WxVcFiFh7YekMpUO0-3" style="edgeStyle=orthogonalEdgeStyle;rounded=0;orthogonalLoop=1;jettySize=auto;html=1;exitX=1;exitY=0.5;exitDx=0;exitDy=0;entryX=0;entryY=0.5;entryDx=0;entryDy=0;" parent="1" edge="1">
          <mxGeometry relative="1" as="geometry">
            <mxPoint x="301" y="670" as="sourcePoint" />
            <mxPoint x="334.9999999999786" y="670" as="targetPoint" />
          </mxGeometry>
        </mxCell>
        <mxCell id="T02WxVcFiFh7YekMpUO0-6" style="edgeStyle=orthogonalEdgeStyle;rounded=0;orthogonalLoop=1;jettySize=auto;html=1;exitX=1;exitY=0.5;exitDx=0;exitDy=0;" parent="1" edge="1">
          <mxGeometry relative="1" as="geometry">
            <mxPoint x="470" y="669.5799999999999" as="sourcePoint" />
            <mxPoint x="510" y="670" as="targetPoint" />
          </mxGeometry>
        </mxCell>
        <mxCell id="T02WxVcFiFh7YekMpUO0-10" value="Especificador de tipo" style="rounded=1;whiteSpace=wrap;html=1;" parent="1" vertex="1">
          <mxGeometry x="216" y="647.5" width="90" height="45" as="geometry" />
        </mxCell>
        <mxCell id="AOTXAFI5C6rrJoM-5r-1-1" value="&lt;font face=&quot;Courier New&quot;&gt;Lista declaraciones init&lt;/font&gt;" style="rounded=1;whiteSpace=wrap;html=1;" parent="1" vertex="1">
          <mxGeometry x="335" y="640" width="145" height="60" as="geometry" />
        </mxCell>
        <mxCell id="AOTXAFI5C6rrJoM-5r-1-2" value="&lt;span style=&quot;font-size: 16px;&quot;&gt;;&lt;/span&gt;" style="ellipse;whiteSpace=wrap;html=1;aspect=fixed;fontStyle=1" parent="1" vertex="1">
          <mxGeometry x="510" y="655" width="30" height="30" as="geometry" />
        </mxCell>
      </root>
    </mxGraphModel>
  </diagram>
  <diagram id="x-p82rQhSUNukTHQSs3q" name="proposiciones">
    <mxGraphModel dx="438" dy="843" grid="1" gridSize="10" guides="1" tooltips="1" connect="1" arrows="1" fold="1" page="1" pageScale="1" pageWidth="850" pageHeight="1100" math="0" shadow="0">
      <root>
        <mxCell id="0" />
        <mxCell id="1" parent="0" />
        <mxCell id="xz-hyZg6iKaZbMFATLdn-1" value="Lista de proposiciones" style="text;html=1;align=center;verticalAlign=middle;whiteSpace=wrap;rounded=0;fontFamily=Courier New;fontColor=#001DBC;" parent="1" vertex="1">
          <mxGeometry x="60" y="90" width="160" height="30" as="geometry" />
        </mxCell>
        <mxCell id="xz-hyZg6iKaZbMFATLdn-2" value="" style="endArrow=classic;html=1;rounded=0;" parent="1" edge="1">
          <mxGeometry width="50" height="50" relative="1" as="geometry">
            <mxPoint x="65" y="80" as="sourcePoint" />
            <mxPoint x="215" y="80" as="targetPoint" />
          </mxGeometry>
        </mxCell>
        <mxCell id="xz-hyZg6iKaZbMFATLdn-3" style="edgeStyle=orthogonalEdgeStyle;rounded=0;orthogonalLoop=1;jettySize=auto;html=1;exitX=1;exitY=0.5;exitDx=0;exitDy=0;entryX=0;entryY=0.5;entryDx=0;entryDy=0;" parent="1" edge="1">
          <mxGeometry relative="1" as="geometry">
            <mxPoint x="301" y="80" as="sourcePoint" />
            <mxPoint x="334.9999999999786" y="80" as="targetPoint" />
          </mxGeometry>
        </mxCell>
        <mxCell id="xz-hyZg6iKaZbMFATLdn-4" style="edgeStyle=orthogonalEdgeStyle;rounded=0;orthogonalLoop=1;jettySize=auto;html=1;exitX=1;exitY=0.5;exitDx=0;exitDy=0;" parent="1" edge="1">
          <mxGeometry relative="1" as="geometry">
            <mxPoint x="425" y="79.49999999999989" as="sourcePoint" />
            <mxPoint x="460" y="80" as="targetPoint" />
          </mxGeometry>
        </mxCell>
        <mxCell id="xz-hyZg6iKaZbMFATLdn-5" value="&lt;span style=&quot;font-family: &amp;quot;Courier New&amp;quot;;&quot;&gt;Proposición&lt;/span&gt;" style="rounded=1;whiteSpace=wrap;html=1;" parent="1" vertex="1">
          <mxGeometry x="220" y="57.5" width="90" height="45" as="geometry" />
        </mxCell>
        <mxCell id="xz-hyZg6iKaZbMFATLdn-6" value="" style="endArrow=classic;startArrow=classic;html=1;rounded=0;" parent="1" edge="1">
          <mxGeometry width="50" height="50" relative="1" as="geometry">
            <mxPoint x="319" y="80" as="sourcePoint" />
            <mxPoint x="440" y="80" as="targetPoint" />
            <Array as="points">
              <mxPoint x="319" y="40" />
              <mxPoint x="389" y="40" />
              <mxPoint x="440" y="40" />
            </Array>
          </mxGeometry>
        </mxCell>
        <mxCell id="xz-hyZg6iKaZbMFATLdn-7" value="&lt;font face=&quot;Courier New&quot;&gt;Proposición&lt;/font&gt;" style="rounded=1;whiteSpace=wrap;html=1;" parent="1" vertex="1">
          <mxGeometry x="335" y="57.5" width="90" height="45" as="geometry" />
        </mxCell>
        <mxCell id="BsxHMfnwx-pZwuaisE7W-5" value="" style="endArrow=classic;html=1;rounded=0;entryX=0;entryY=0.5;entryDx=0;entryDy=0;" parent="1" edge="1">
          <mxGeometry width="50" height="50" relative="1" as="geometry">
            <mxPoint x="75" y="174.5" as="sourcePoint" />
            <mxPoint x="210" y="175" as="targetPoint" />
          </mxGeometry>
        </mxCell>
        <mxCell id="BsxHMfnwx-pZwuaisE7W-6" value="Proposición" style="text;html=1;align=center;verticalAlign=middle;whiteSpace=wrap;rounded=0;fontFamily=Courier New;fontColor=#001DBC;" parent="1" vertex="1">
          <mxGeometry x="95" y="180" width="60" height="30" as="geometry" />
        </mxCell>
        <mxCell id="BsxHMfnwx-pZwuaisE7W-7" value="" style="endArrow=classic;html=1;rounded=0;entryX=0;entryY=0.5;entryDx=0;entryDy=0;" parent="1" edge="1">
          <mxGeometry width="50" height="50" relative="1" as="geometry">
            <mxPoint x="185" y="180" as="sourcePoint" />
            <mxPoint x="210" y="245" as="targetPoint" />
            <Array as="points">
              <mxPoint x="185" y="245" />
            </Array>
          </mxGeometry>
        </mxCell>
        <mxCell id="BsxHMfnwx-pZwuaisE7W-8" value="" style="endArrow=classic;html=1;rounded=0;entryX=0;entryY=0.5;entryDx=0;entryDy=0;" parent="1" edge="1">
          <mxGeometry width="50" height="50" relative="1" as="geometry">
            <mxPoint x="185" y="230" as="sourcePoint" />
            <mxPoint x="210" y="315" as="targetPoint" />
            <Array as="points">
              <mxPoint x="185" y="315" />
            </Array>
          </mxGeometry>
        </mxCell>
        <mxCell id="BsxHMfnwx-pZwuaisE7W-9" value="" style="endArrow=classic;html=1;rounded=0;entryX=0;entryY=0.5;entryDx=0;entryDy=0;" parent="1" edge="1">
          <mxGeometry width="50" height="50" relative="1" as="geometry">
            <mxPoint x="185" y="310" as="sourcePoint" />
            <mxPoint x="210" y="385" as="targetPoint" />
            <Array as="points">
              <mxPoint x="185" y="385" />
            </Array>
          </mxGeometry>
        </mxCell>
        <mxCell id="BsxHMfnwx-pZwuaisE7W-10" style="edgeStyle=orthogonalEdgeStyle;rounded=0;orthogonalLoop=1;jettySize=auto;html=1;entryX=0;entryY=0.5;entryDx=0;entryDy=0;exitX=1;exitY=0.5;exitDx=0;exitDy=0;" parent="1" source="BsxHMfnwx-pZwuaisE7W-14" edge="1">
          <mxGeometry relative="1" as="geometry">
            <mxPoint x="373" y="172" as="sourcePoint" />
            <mxPoint x="498" y="172" as="targetPoint" />
          </mxGeometry>
        </mxCell>
        <mxCell id="BsxHMfnwx-pZwuaisE7W-11" value="" style="endArrow=none;html=1;rounded=0;exitX=1;exitY=0.5;exitDx=0;exitDy=0;" parent="1" edge="1">
          <mxGeometry width="50" height="50" relative="1" as="geometry">
            <mxPoint x="300" y="245" as="sourcePoint" />
            <mxPoint x="470" y="180" as="targetPoint" />
            <Array as="points">
              <mxPoint x="470" y="245" />
            </Array>
          </mxGeometry>
        </mxCell>
        <mxCell id="BsxHMfnwx-pZwuaisE7W-14" value="&lt;span style=&quot;font-family: &amp;quot;Courier New&amp;quot;;&quot;&gt;Proposición expresión&lt;/span&gt;" style="rounded=1;whiteSpace=wrap;html=1;" parent="1" vertex="1">
          <mxGeometry x="210" y="150" width="90" height="45" as="geometry" />
        </mxCell>
        <mxCell id="BsxHMfnwx-pZwuaisE7W-15" value="&lt;span style=&quot;font-family: &amp;quot;Courier New&amp;quot;;&quot;&gt;Proposición compuesta&lt;/span&gt;" style="rounded=1;whiteSpace=wrap;html=1;" parent="1" vertex="1">
          <mxGeometry x="210" y="220" width="90" height="45" as="geometry" />
        </mxCell>
        <mxCell id="BsxHMfnwx-pZwuaisE7W-16" value="&lt;span style=&quot;font-family: &amp;quot;Courier New&amp;quot;;&quot;&gt;Proposición de iteración&lt;/span&gt;" style="rounded=1;whiteSpace=wrap;html=1;" parent="1" vertex="1">
          <mxGeometry x="210" y="290" width="90" height="45" as="geometry" />
        </mxCell>
        <mxCell id="BsxHMfnwx-pZwuaisE7W-17" value="&lt;span style=&quot;font-family: &amp;quot;Courier New&amp;quot;;&quot;&gt;Proposición de selección&lt;/span&gt;" style="rounded=1;whiteSpace=wrap;html=1;" parent="1" vertex="1">
          <mxGeometry x="210" y="360" width="90" height="45" as="geometry" />
        </mxCell>
        <mxCell id="BsxHMfnwx-pZwuaisE7W-18" value="&lt;span style=&quot;font-family: &amp;quot;Courier New&amp;quot;;&quot;&gt;Proposición de retorno&lt;/span&gt;" style="rounded=1;whiteSpace=wrap;html=1;" parent="1" vertex="1">
          <mxGeometry x="210" y="420" width="90" height="45" as="geometry" />
        </mxCell>
        <mxCell id="BsxHMfnwx-pZwuaisE7W-19" value="&lt;span style=&quot;font-family: &amp;quot;Courier New&amp;quot;;&quot;&gt;Proposición de entrada/salida&lt;/span&gt;" style="rounded=1;whiteSpace=wrap;html=1;" parent="1" vertex="1">
          <mxGeometry x="210" y="480" width="120" height="45" as="geometry" />
        </mxCell>
        <mxCell id="BsxHMfnwx-pZwuaisE7W-20" value="" style="endArrow=classic;html=1;rounded=0;entryX=0;entryY=0.5;entryDx=0;entryDy=0;" parent="1" edge="1">
          <mxGeometry width="50" height="50" relative="1" as="geometry">
            <mxPoint x="185" y="360" as="sourcePoint" />
            <mxPoint x="210" y="445" as="targetPoint" />
            <Array as="points">
              <mxPoint x="185" y="445" />
            </Array>
          </mxGeometry>
        </mxCell>
        <mxCell id="BsxHMfnwx-pZwuaisE7W-21" value="" style="endArrow=classic;html=1;rounded=0;entryX=0;entryY=0.5;entryDx=0;entryDy=0;" parent="1" edge="1">
          <mxGeometry width="50" height="50" relative="1" as="geometry">
            <mxPoint x="185" y="420" as="sourcePoint" />
            <mxPoint x="210" y="505" as="targetPoint" />
            <Array as="points">
              <mxPoint x="185" y="505" />
            </Array>
          </mxGeometry>
        </mxCell>
        <mxCell id="BsxHMfnwx-pZwuaisE7W-23" value="" style="endArrow=none;html=1;rounded=0;exitX=1;exitY=0.5;exitDx=0;exitDy=0;" parent="1" edge="1">
          <mxGeometry width="50" height="50" relative="1" as="geometry">
            <mxPoint x="300" y="315" as="sourcePoint" />
            <mxPoint x="470" y="230" as="targetPoint" />
            <Array as="points">
              <mxPoint x="470" y="315" />
            </Array>
          </mxGeometry>
        </mxCell>
        <mxCell id="BsxHMfnwx-pZwuaisE7W-24" value="" style="endArrow=none;html=1;rounded=0;exitX=1;exitY=0.5;exitDx=0;exitDy=0;" parent="1" edge="1">
          <mxGeometry width="50" height="50" relative="1" as="geometry">
            <mxPoint x="300" y="375" as="sourcePoint" />
            <mxPoint x="470" y="310" as="targetPoint" />
            <Array as="points">
              <mxPoint x="470" y="375" />
            </Array>
          </mxGeometry>
        </mxCell>
        <mxCell id="BsxHMfnwx-pZwuaisE7W-25" value="" style="endArrow=none;html=1;rounded=0;exitX=1;exitY=0.5;exitDx=0;exitDy=0;" parent="1" edge="1">
          <mxGeometry width="50" height="50" relative="1" as="geometry">
            <mxPoint x="300" y="445" as="sourcePoint" />
            <mxPoint x="470" y="350" as="targetPoint" />
            <Array as="points">
              <mxPoint x="470" y="445" />
            </Array>
          </mxGeometry>
        </mxCell>
        <mxCell id="BsxHMfnwx-pZwuaisE7W-26" value="" style="endArrow=none;html=1;rounded=0;exitX=1;exitY=0.5;exitDx=0;exitDy=0;" parent="1" edge="1">
          <mxGeometry width="50" height="50" relative="1" as="geometry">
            <mxPoint x="330" y="505" as="sourcePoint" />
            <mxPoint x="470" y="420" as="targetPoint" />
            <Array as="points">
              <mxPoint x="470" y="505" />
            </Array>
          </mxGeometry>
        </mxCell>
        <mxCell id="G0rq8GhURrCNcOdMey3v-1" value="Proposición de iteración" style="text;html=1;align=center;verticalAlign=middle;whiteSpace=wrap;rounded=0;fontFamily=Courier New;fontColor=#001DBC;" parent="1" vertex="1">
          <mxGeometry x="60" y="585" width="160" height="30" as="geometry" />
        </mxCell>
        <mxCell id="G0rq8GhURrCNcOdMey3v-2" value="" style="endArrow=classic;html=1;rounded=0;" parent="1" edge="1">
          <mxGeometry width="50" height="50" relative="1" as="geometry">
            <mxPoint x="70" y="579.5" as="sourcePoint" />
            <mxPoint x="220" y="579.5" as="targetPoint" />
          </mxGeometry>
        </mxCell>
        <mxCell id="a_-_6Ox1FPrx7sLqdxBJ-2" style="edgeStyle=orthogonalEdgeStyle;rounded=0;orthogonalLoop=1;jettySize=auto;html=1;exitX=1;exitY=0.5;exitDx=0;exitDy=0;entryX=0;entryY=0.5;entryDx=0;entryDy=0;" parent="1" source="G0rq8GhURrCNcOdMey3v-4" target="a_-_6Ox1FPrx7sLqdxBJ-1" edge="1">
          <mxGeometry relative="1" as="geometry" />
        </mxCell>
        <mxCell id="G0rq8GhURrCNcOdMey3v-4" value="&lt;b&gt;&lt;font face=&quot;Courier New&quot;&gt;while&lt;/font&gt;&lt;/b&gt;" style="ellipse;whiteSpace=wrap;html=1;" parent="1" vertex="1">
          <mxGeometry x="220" y="555" width="50" height="50" as="geometry" />
        </mxCell>
        <mxCell id="a_-_6Ox1FPrx7sLqdxBJ-5" style="edgeStyle=orthogonalEdgeStyle;rounded=0;orthogonalLoop=1;jettySize=auto;html=1;exitX=1;exitY=0.5;exitDx=0;exitDy=0;entryX=0;entryY=0.5;entryDx=0;entryDy=0;" parent="1" source="8jAb_3YqtMbRDA0P6QhQ-1" target="a_-_6Ox1FPrx7sLqdxBJ-4" edge="1">
          <mxGeometry relative="1" as="geometry" />
        </mxCell>
        <mxCell id="8jAb_3YqtMbRDA0P6QhQ-1" value="&lt;font face=&quot;Courier New&quot;&gt;Expresión&lt;/font&gt;" style="rounded=1;whiteSpace=wrap;html=1;" parent="1" vertex="1">
          <mxGeometry x="345" y="557.5" width="80" height="45" as="geometry" />
        </mxCell>
        <mxCell id="a_-_6Ox1FPrx7sLqdxBJ-3" style="edgeStyle=orthogonalEdgeStyle;rounded=0;orthogonalLoop=1;jettySize=auto;html=1;exitX=1;exitY=0.5;exitDx=0;exitDy=0;entryX=0;entryY=0.5;entryDx=0;entryDy=0;" parent="1" source="a_-_6Ox1FPrx7sLqdxBJ-1" target="8jAb_3YqtMbRDA0P6QhQ-1" edge="1">
          <mxGeometry relative="1" as="geometry" />
        </mxCell>
        <mxCell id="a_-_6Ox1FPrx7sLqdxBJ-1" value="&lt;font style=&quot;font-size: 16px;&quot;&gt;(&lt;/font&gt;" style="ellipse;whiteSpace=wrap;html=1;aspect=fixed;fontStyle=1" parent="1" vertex="1">
          <mxGeometry x="290" y="565" width="30" height="30" as="geometry" />
        </mxCell>
        <mxCell id="a_-_6Ox1FPrx7sLqdxBJ-7" style="edgeStyle=orthogonalEdgeStyle;rounded=0;orthogonalLoop=1;jettySize=auto;html=1;exitX=1;exitY=0.5;exitDx=0;exitDy=0;entryX=0;entryY=0.5;entryDx=0;entryDy=0;" parent="1" source="a_-_6Ox1FPrx7sLqdxBJ-4" target="a_-_6Ox1FPrx7sLqdxBJ-6" edge="1">
          <mxGeometry relative="1" as="geometry">
            <mxPoint x="500" y="580" as="targetPoint" />
          </mxGeometry>
        </mxCell>
        <mxCell id="a_-_6Ox1FPrx7sLqdxBJ-4" value="&lt;font style=&quot;font-size: 16px;&quot;&gt;)&lt;/font&gt;" style="ellipse;whiteSpace=wrap;html=1;aspect=fixed;fontStyle=1" parent="1" vertex="1">
          <mxGeometry x="450" y="565" width="30" height="30" as="geometry" />
        </mxCell>
        <mxCell id="a_-_6Ox1FPrx7sLqdxBJ-6" value="&lt;span style=&quot;font-family: &amp;quot;Courier New&amp;quot;;&quot;&gt;Proposición&lt;/span&gt;" style="rounded=1;whiteSpace=wrap;html=1;" parent="1" vertex="1">
          <mxGeometry x="520" y="557.5" width="90" height="45" as="geometry" />
        </mxCell>
        <mxCell id="D_BHyjgiFllXE63JcsgC-1" value="Proposición de selección" style="text;html=1;align=center;verticalAlign=middle;whiteSpace=wrap;rounded=0;fontFamily=Courier New;fontColor=#001DBC;" parent="1" vertex="1">
          <mxGeometry x="60" y="660" width="160" height="30" as="geometry" />
        </mxCell>
        <mxCell id="D_BHyjgiFllXE63JcsgC-2" value="" style="endArrow=classic;html=1;rounded=0;" parent="1" edge="1">
          <mxGeometry width="50" height="50" relative="1" as="geometry">
            <mxPoint x="70" y="654.5" as="sourcePoint" />
            <mxPoint x="220" y="654.5" as="targetPoint" />
          </mxGeometry>
        </mxCell>
        <mxCell id="D_BHyjgiFllXE63JcsgC-3" style="edgeStyle=orthogonalEdgeStyle;rounded=0;orthogonalLoop=1;jettySize=auto;html=1;exitX=1;exitY=0.5;exitDx=0;exitDy=0;entryX=0;entryY=0.5;entryDx=0;entryDy=0;" parent="1" source="D_BHyjgiFllXE63JcsgC-4" target="D_BHyjgiFllXE63JcsgC-8" edge="1">
          <mxGeometry relative="1" as="geometry" />
        </mxCell>
        <mxCell id="D_BHyjgiFllXE63JcsgC-4" value="&lt;b&gt;&lt;font face=&quot;Courier New&quot;&gt;if&lt;/font&gt;&lt;/b&gt;" style="ellipse;whiteSpace=wrap;html=1;" parent="1" vertex="1">
          <mxGeometry x="220" y="630" width="50" height="50" as="geometry" />
        </mxCell>
        <mxCell id="D_BHyjgiFllXE63JcsgC-5" style="edgeStyle=orthogonalEdgeStyle;rounded=0;orthogonalLoop=1;jettySize=auto;html=1;exitX=1;exitY=0.5;exitDx=0;exitDy=0;entryX=0;entryY=0.5;entryDx=0;entryDy=0;" parent="1" source="D_BHyjgiFllXE63JcsgC-6" target="D_BHyjgiFllXE63JcsgC-10" edge="1">
          <mxGeometry relative="1" as="geometry" />
        </mxCell>
        <mxCell id="D_BHyjgiFllXE63JcsgC-6" value="&lt;font face=&quot;Courier New&quot;&gt;Expresión&lt;/font&gt;" style="rounded=1;whiteSpace=wrap;html=1;" parent="1" vertex="1">
          <mxGeometry x="345" y="632.5" width="80" height="45" as="geometry" />
        </mxCell>
        <mxCell id="D_BHyjgiFllXE63JcsgC-7" style="edgeStyle=orthogonalEdgeStyle;rounded=0;orthogonalLoop=1;jettySize=auto;html=1;exitX=1;exitY=0.5;exitDx=0;exitDy=0;entryX=0;entryY=0.5;entryDx=0;entryDy=0;" parent="1" source="D_BHyjgiFllXE63JcsgC-8" target="D_BHyjgiFllXE63JcsgC-6" edge="1">
          <mxGeometry relative="1" as="geometry" />
        </mxCell>
        <mxCell id="D_BHyjgiFllXE63JcsgC-8" value="&lt;font style=&quot;font-size: 16px;&quot;&gt;(&lt;/font&gt;" style="ellipse;whiteSpace=wrap;html=1;aspect=fixed;fontStyle=1" parent="1" vertex="1">
          <mxGeometry x="290" y="640" width="30" height="30" as="geometry" />
        </mxCell>
        <mxCell id="D_BHyjgiFllXE63JcsgC-9" style="edgeStyle=orthogonalEdgeStyle;rounded=0;orthogonalLoop=1;jettySize=auto;html=1;exitX=1;exitY=0.5;exitDx=0;exitDy=0;entryX=0;entryY=0.5;entryDx=0;entryDy=0;" parent="1" source="D_BHyjgiFllXE63JcsgC-10" target="D_BHyjgiFllXE63JcsgC-11" edge="1">
          <mxGeometry relative="1" as="geometry">
            <mxPoint x="500" y="655" as="targetPoint" />
          </mxGeometry>
        </mxCell>
        <mxCell id="D_BHyjgiFllXE63JcsgC-10" value="&lt;font style=&quot;font-size: 16px;&quot;&gt;)&lt;/font&gt;" style="ellipse;whiteSpace=wrap;html=1;aspect=fixed;fontStyle=1" parent="1" vertex="1">
          <mxGeometry x="450" y="640" width="30" height="30" as="geometry" />
        </mxCell>
        <mxCell id="D_BHyjgiFllXE63JcsgC-14" style="edgeStyle=orthogonalEdgeStyle;rounded=0;orthogonalLoop=1;jettySize=auto;html=1;exitX=1;exitY=0.5;exitDx=0;exitDy=0;entryX=0;entryY=0.5;entryDx=0;entryDy=0;" parent="1" source="D_BHyjgiFllXE63JcsgC-11" target="D_BHyjgiFllXE63JcsgC-12" edge="1">
          <mxGeometry relative="1" as="geometry">
            <mxPoint x="640" y="655" as="targetPoint" />
          </mxGeometry>
        </mxCell>
        <mxCell id="D_BHyjgiFllXE63JcsgC-11" value="&lt;span style=&quot;font-family: &amp;quot;Courier New&amp;quot;;&quot;&gt;Proposición&lt;/span&gt;" style="rounded=1;whiteSpace=wrap;html=1;" parent="1" vertex="1">
          <mxGeometry x="520" y="632.5" width="90" height="45" as="geometry" />
        </mxCell>
        <mxCell id="D_BHyjgiFllXE63JcsgC-15" style="edgeStyle=orthogonalEdgeStyle;rounded=0;orthogonalLoop=1;jettySize=auto;html=1;exitX=1;exitY=0.5;exitDx=0;exitDy=0;entryX=0;entryY=0.5;entryDx=0;entryDy=0;" parent="1" source="D_BHyjgiFllXE63JcsgC-12" target="D_BHyjgiFllXE63JcsgC-13" edge="1">
          <mxGeometry relative="1" as="geometry" />
        </mxCell>
        <mxCell id="D_BHyjgiFllXE63JcsgC-12" value="else" style="ellipse;whiteSpace=wrap;html=1;fontStyle=1" parent="1" vertex="1">
          <mxGeometry x="650" y="630" width="50" height="50" as="geometry" />
        </mxCell>
        <mxCell id="D_BHyjgiFllXE63JcsgC-16" style="edgeStyle=orthogonalEdgeStyle;rounded=0;orthogonalLoop=1;jettySize=auto;html=1;exitX=1;exitY=0.5;exitDx=0;exitDy=0;" parent="1" source="D_BHyjgiFllXE63JcsgC-13" edge="1">
          <mxGeometry relative="1" as="geometry">
            <mxPoint x="870" y="655" as="targetPoint" />
          </mxGeometry>
        </mxCell>
        <mxCell id="D_BHyjgiFllXE63JcsgC-13" value="&lt;span style=&quot;font-family: &amp;quot;Courier New&amp;quot;;&quot;&gt;Proposición&lt;/span&gt;" style="rounded=1;whiteSpace=wrap;html=1;" parent="1" vertex="1">
          <mxGeometry x="740" y="632.5" width="90" height="45" as="geometry" />
        </mxCell>
        <mxCell id="LNAP-fFBk8ONDtxc5f1--1" value="" style="endArrow=classic;html=1;rounded=0;" parent="1" edge="1">
          <mxGeometry width="50" height="50" relative="1" as="geometry">
            <mxPoint x="630" y="655" as="sourcePoint" />
            <mxPoint x="850" y="655" as="targetPoint" />
            <Array as="points">
              <mxPoint x="630" y="615" />
              <mxPoint x="850" y="615" />
            </Array>
          </mxGeometry>
        </mxCell>
        <mxCell id="f9a5PSGbTBNGd82JtuRj-10" value="Proposición de retorno" style="text;html=1;align=center;verticalAlign=middle;whiteSpace=wrap;rounded=0;fontFamily=Courier New;fontColor=#001DBC;" parent="1" vertex="1">
          <mxGeometry x="60" y="730" width="160" height="30" as="geometry" />
        </mxCell>
        <mxCell id="f9a5PSGbTBNGd82JtuRj-11" value="" style="endArrow=classic;html=1;rounded=0;" parent="1" edge="1">
          <mxGeometry width="50" height="50" relative="1" as="geometry">
            <mxPoint x="70" y="724.5" as="sourcePoint" />
            <mxPoint x="220" y="724.5" as="targetPoint" />
          </mxGeometry>
        </mxCell>
        <mxCell id="f9a5PSGbTBNGd82JtuRj-13" value="&lt;b&gt;&lt;font face=&quot;Courier New&quot;&gt;return&lt;/font&gt;&lt;/b&gt;" style="ellipse;whiteSpace=wrap;html=1;" parent="1" vertex="1">
          <mxGeometry x="220" y="700" width="50" height="50" as="geometry" />
        </mxCell>
        <mxCell id="f9a5PSGbTBNGd82JtuRj-14" style="edgeStyle=orthogonalEdgeStyle;rounded=0;orthogonalLoop=1;jettySize=auto;html=1;exitX=1;exitY=0.5;exitDx=0;exitDy=0;entryX=0;entryY=0.5;entryDx=0;entryDy=0;" parent="1" source="f9a5PSGbTBNGd82JtuRj-15" target="f9a5PSGbTBNGd82JtuRj-18" edge="1">
          <mxGeometry relative="1" as="geometry" />
        </mxCell>
        <mxCell id="f9a5PSGbTBNGd82JtuRj-15" value="&lt;font face=&quot;Courier New&quot;&gt;Expresión&lt;/font&gt;" style="rounded=1;whiteSpace=wrap;html=1;" parent="1" vertex="1">
          <mxGeometry x="345" y="702.5" width="80" height="45" as="geometry" />
        </mxCell>
        <mxCell id="f9a5PSGbTBNGd82JtuRj-16" style="edgeStyle=orthogonalEdgeStyle;rounded=0;orthogonalLoop=1;jettySize=auto;html=1;exitX=1;exitY=0.5;exitDx=0;exitDy=0;entryX=0;entryY=0.5;entryDx=0;entryDy=0;" parent="1" source="f9a5PSGbTBNGd82JtuRj-13" target="f9a5PSGbTBNGd82JtuRj-15" edge="1">
          <mxGeometry relative="1" as="geometry">
            <mxPoint x="320" y="725" as="sourcePoint" />
          </mxGeometry>
        </mxCell>
        <mxCell id="f9a5PSGbTBNGd82JtuRj-18" value="&lt;font style=&quot;font-size: 16px;&quot;&gt;;&lt;/font&gt;" style="ellipse;whiteSpace=wrap;html=1;aspect=fixed;fontStyle=1" parent="1" vertex="1">
          <mxGeometry x="450" y="710" width="30" height="30" as="geometry" />
        </mxCell>
        <mxCell id="f9a5PSGbTBNGd82JtuRj-20" value="Proposición expresión" style="text;html=1;align=center;verticalAlign=middle;whiteSpace=wrap;rounded=0;fontFamily=Courier New;fontColor=#001DBC;" parent="1" vertex="1">
          <mxGeometry x="60" y="800" width="160" height="30" as="geometry" />
        </mxCell>
        <mxCell id="f9a5PSGbTBNGd82JtuRj-21" value="" style="endArrow=classic;html=1;rounded=0;entryX=0;entryY=0.5;entryDx=0;entryDy=0;" parent="1" target="f9a5PSGbTBNGd82JtuRj-24" edge="1">
          <mxGeometry width="50" height="50" relative="1" as="geometry">
            <mxPoint x="70" y="794.5" as="sourcePoint" />
            <mxPoint x="220" y="794.5" as="targetPoint" />
          </mxGeometry>
        </mxCell>
        <mxCell id="f9a5PSGbTBNGd82JtuRj-23" style="edgeStyle=orthogonalEdgeStyle;rounded=0;orthogonalLoop=1;jettySize=auto;html=1;exitX=1;exitY=0.5;exitDx=0;exitDy=0;entryX=0;entryY=0.5;entryDx=0;entryDy=0;" parent="1" source="f9a5PSGbTBNGd82JtuRj-24" target="f9a5PSGbTBNGd82JtuRj-26" edge="1">
          <mxGeometry relative="1" as="geometry" />
        </mxCell>
        <mxCell id="f9a5PSGbTBNGd82JtuRj-24" value="&lt;font face=&quot;Courier New&quot;&gt;Expresión&lt;/font&gt;" style="rounded=1;whiteSpace=wrap;html=1;" parent="1" vertex="1">
          <mxGeometry x="345" y="772.5" width="80" height="45" as="geometry" />
        </mxCell>
        <mxCell id="f9a5PSGbTBNGd82JtuRj-26" value="&lt;font style=&quot;font-size: 16px;&quot;&gt;;&lt;/font&gt;" style="ellipse;whiteSpace=wrap;html=1;aspect=fixed;fontStyle=1" parent="1" vertex="1">
          <mxGeometry x="450" y="780" width="30" height="30" as="geometry" />
        </mxCell>
        <mxCell id="_GDITV6a6_lcjZKz79SY-1" value="" style="endArrow=classic;html=1;rounded=0;" parent="1" edge="1">
          <mxGeometry width="50" height="50" relative="1" as="geometry">
            <mxPoint x="215" y="796" as="sourcePoint" />
            <mxPoint x="435" y="796" as="targetPoint" />
            <Array as="points">
              <mxPoint x="215" y="756" />
              <mxPoint x="435" y="756" />
            </Array>
          </mxGeometry>
        </mxCell>
        <mxCell id="FiNrAn-RYfqaF5m9vNkk-2" value="" style="endArrow=classic;html=1;rounded=0;" parent="1" edge="1">
          <mxGeometry width="50" height="50" relative="1" as="geometry">
            <mxPoint x="60" y="882" as="sourcePoint" />
            <mxPoint x="210" y="882" as="targetPoint" />
          </mxGeometry>
        </mxCell>
        <mxCell id="FiNrAn-RYfqaF5m9vNkk-34" style="edgeStyle=orthogonalEdgeStyle;rounded=0;orthogonalLoop=1;jettySize=auto;html=1;exitX=1;exitY=0.5;exitDx=0;exitDy=0;" parent="1" source="FiNrAn-RYfqaF5m9vNkk-6" target="FiNrAn-RYfqaF5m9vNkk-32" edge="1">
          <mxGeometry relative="1" as="geometry" />
        </mxCell>
        <mxCell id="FiNrAn-RYfqaF5m9vNkk-6" value="&lt;font face=&quot;Courier New&quot;&gt;variable&lt;/font&gt;" style="rounded=1;whiteSpace=wrap;html=1;" parent="1" vertex="1">
          <mxGeometry x="340" y="862.5" width="80" height="45" as="geometry" />
        </mxCell>
        <mxCell id="FiNrAn-RYfqaF5m9vNkk-20" value="" style="endArrow=classic;html=1;rounded=0;entryX=0;entryY=0.5;entryDx=0;entryDy=0;" parent="1" edge="1">
          <mxGeometry width="50" height="50" relative="1" as="geometry">
            <mxPoint x="185" y="882.5" as="sourcePoint" />
            <mxPoint x="210" y="962.5" as="targetPoint" />
            <Array as="points">
              <mxPoint x="185" y="962.5" />
            </Array>
          </mxGeometry>
        </mxCell>
        <mxCell id="FiNrAn-RYfqaF5m9vNkk-23" value="Proposición de entrada/salida" style="text;html=1;align=center;verticalAlign=middle;whiteSpace=wrap;rounded=0;fontFamily=Courier New;fontColor=#001DBC;" parent="1" vertex="1">
          <mxGeometry x="45" y="890" width="160" height="30" as="geometry" />
        </mxCell>
        <mxCell id="FiNrAn-RYfqaF5m9vNkk-28" style="edgeStyle=orthogonalEdgeStyle;rounded=0;orthogonalLoop=1;jettySize=auto;html=1;exitX=1;exitY=0.5;exitDx=0;exitDy=0;entryX=0;entryY=0.5;entryDx=0;entryDy=0;" parent="1" source="FiNrAn-RYfqaF5m9vNkk-24" target="FiNrAn-RYfqaF5m9vNkk-26" edge="1">
          <mxGeometry relative="1" as="geometry" />
        </mxCell>
        <mxCell id="FiNrAn-RYfqaF5m9vNkk-24" value="&lt;b&gt;&lt;font&gt;cin&lt;/font&gt;&lt;/b&gt;" style="ellipse;whiteSpace=wrap;html=1;fontFamily=Courier New;" parent="1" vertex="1">
          <mxGeometry x="210" y="860" width="50" height="50" as="geometry" />
        </mxCell>
        <mxCell id="FiNrAn-RYfqaF5m9vNkk-29" style="edgeStyle=orthogonalEdgeStyle;rounded=0;orthogonalLoop=1;jettySize=auto;html=1;exitX=1;exitY=0.5;exitDx=0;exitDy=0;entryX=0;entryY=0.5;entryDx=0;entryDy=0;" parent="1" source="FiNrAn-RYfqaF5m9vNkk-25" target="FiNrAn-RYfqaF5m9vNkk-27" edge="1">
          <mxGeometry relative="1" as="geometry" />
        </mxCell>
        <mxCell id="FiNrAn-RYfqaF5m9vNkk-25" value="&lt;b&gt;&lt;font&gt;cout&lt;/font&gt;&lt;/b&gt;" style="ellipse;whiteSpace=wrap;html=1;fontFamily=Courier New;" parent="1" vertex="1">
          <mxGeometry x="210" y="937.5" width="50" height="50" as="geometry" />
        </mxCell>
        <mxCell id="FiNrAn-RYfqaF5m9vNkk-31" style="edgeStyle=orthogonalEdgeStyle;rounded=0;orthogonalLoop=1;jettySize=auto;html=1;exitX=1;exitY=0.5;exitDx=0;exitDy=0;" parent="1" source="FiNrAn-RYfqaF5m9vNkk-26" target="FiNrAn-RYfqaF5m9vNkk-6" edge="1">
          <mxGeometry relative="1" as="geometry" />
        </mxCell>
        <mxCell id="FiNrAn-RYfqaF5m9vNkk-26" value="&lt;font style=&quot;font-size: 16px;&quot;&gt;&amp;gt;&amp;gt;&lt;/font&gt;" style="ellipse;whiteSpace=wrap;html=1;aspect=fixed;fontStyle=1" parent="1" vertex="1">
          <mxGeometry x="280" y="870" width="30" height="30" as="geometry" />
        </mxCell>
        <mxCell id="FiNrAn-RYfqaF5m9vNkk-45" style="edgeStyle=orthogonalEdgeStyle;rounded=0;orthogonalLoop=1;jettySize=auto;html=1;exitX=1;exitY=0.5;exitDx=0;exitDy=0;" parent="1" source="FiNrAn-RYfqaF5m9vNkk-27" target="FiNrAn-RYfqaF5m9vNkk-44" edge="1">
          <mxGeometry relative="1" as="geometry" />
        </mxCell>
        <mxCell id="FiNrAn-RYfqaF5m9vNkk-27" value="&lt;span style=&quot;font-size: 16px;&quot;&gt;&amp;lt;&amp;lt;&lt;/span&gt;" style="ellipse;whiteSpace=wrap;html=1;aspect=fixed;fontStyle=1;fontFamily=Courier New;" parent="1" vertex="1">
          <mxGeometry x="280" y="947.5" width="30" height="30" as="geometry" />
        </mxCell>
        <mxCell id="FiNrAn-RYfqaF5m9vNkk-35" style="edgeStyle=orthogonalEdgeStyle;rounded=0;orthogonalLoop=1;jettySize=auto;html=1;exitX=1;exitY=0.5;exitDx=0;exitDy=0;entryX=0;entryY=0.5;entryDx=0;entryDy=0;" parent="1" source="FiNrAn-RYfqaF5m9vNkk-32" target="FiNrAn-RYfqaF5m9vNkk-33" edge="1">
          <mxGeometry relative="1" as="geometry">
            <mxPoint x="500" y="884.8888888888887" as="targetPoint" />
          </mxGeometry>
        </mxCell>
        <mxCell id="FiNrAn-RYfqaF5m9vNkk-32" value="&lt;font style=&quot;font-size: 16px;&quot;&gt;&amp;gt;&amp;gt;&lt;/font&gt;" style="ellipse;whiteSpace=wrap;html=1;aspect=fixed;fontStyle=1" parent="1" vertex="1">
          <mxGeometry x="450" y="870" width="30" height="30" as="geometry" />
        </mxCell>
        <mxCell id="FiNrAn-RYfqaF5m9vNkk-40" style="edgeStyle=orthogonalEdgeStyle;rounded=0;orthogonalLoop=1;jettySize=auto;html=1;exitX=1;exitY=0.5;exitDx=0;exitDy=0;entryX=0;entryY=0.5;entryDx=0;entryDy=0;" parent="1" source="FiNrAn-RYfqaF5m9vNkk-33" target="FiNrAn-RYfqaF5m9vNkk-38" edge="1">
          <mxGeometry relative="1" as="geometry" />
        </mxCell>
        <mxCell id="FiNrAn-RYfqaF5m9vNkk-33" value="&lt;font face=&quot;Courier New&quot;&gt;variable&lt;/font&gt;" style="rounded=1;whiteSpace=wrap;html=1;" parent="1" vertex="1">
          <mxGeometry x="510" y="862.5" width="80" height="45" as="geometry" />
        </mxCell>
        <mxCell id="FiNrAn-RYfqaF5m9vNkk-38" value=";" style="ellipse;whiteSpace=wrap;html=1;aspect=fixed;fontStyle=1" parent="1" vertex="1">
          <mxGeometry x="650" y="870" width="30" height="30" as="geometry" />
        </mxCell>
        <mxCell id="FiNrAn-RYfqaF5m9vNkk-42" value="" style="endArrow=classic;startArrow=classic;html=1;rounded=0;" parent="1" edge="1">
          <mxGeometry width="50" height="50" relative="1" as="geometry">
            <mxPoint x="432" y="885" as="sourcePoint" />
            <mxPoint x="618" y="885" as="targetPoint" />
            <Array as="points">
              <mxPoint x="432" y="845" />
              <mxPoint x="502" y="845" />
              <mxPoint x="618" y="845" />
            </Array>
          </mxGeometry>
        </mxCell>
        <mxCell id="FiNrAn-RYfqaF5m9vNkk-51" style="edgeStyle=orthogonalEdgeStyle;rounded=0;orthogonalLoop=1;jettySize=auto;html=1;exitX=1;exitY=0.5;exitDx=0;exitDy=0;entryX=0;entryY=0.5;entryDx=0;entryDy=0;" parent="1" source="FiNrAn-RYfqaF5m9vNkk-44" target="FiNrAn-RYfqaF5m9vNkk-47" edge="1">
          <mxGeometry relative="1" as="geometry" />
        </mxCell>
        <mxCell id="FiNrAn-RYfqaF5m9vNkk-44" value="&lt;font face=&quot;Courier New&quot;&gt;expresión&lt;/font&gt;" style="rounded=1;whiteSpace=wrap;html=1;" parent="1" vertex="1">
          <mxGeometry x="340" y="940" width="80" height="45" as="geometry" />
        </mxCell>
        <mxCell id="FiNrAn-RYfqaF5m9vNkk-46" style="edgeStyle=orthogonalEdgeStyle;rounded=0;orthogonalLoop=1;jettySize=auto;html=1;exitX=1;exitY=0.5;exitDx=0;exitDy=0;" parent="1" source="FiNrAn-RYfqaF5m9vNkk-47" target="FiNrAn-RYfqaF5m9vNkk-48" edge="1">
          <mxGeometry relative="1" as="geometry" />
        </mxCell>
        <mxCell id="FiNrAn-RYfqaF5m9vNkk-47" value="&lt;span style=&quot;font-size: 16px;&quot;&gt;&amp;lt;&amp;lt;&lt;/span&gt;" style="ellipse;whiteSpace=wrap;html=1;aspect=fixed;fontStyle=1;fontFamily=Courier New;" parent="1" vertex="1">
          <mxGeometry x="450" y="947.5" width="30" height="30" as="geometry" />
        </mxCell>
        <mxCell id="FiNrAn-RYfqaF5m9vNkk-52" style="edgeStyle=orthogonalEdgeStyle;rounded=0;orthogonalLoop=1;jettySize=auto;html=1;exitX=1;exitY=0.5;exitDx=0;exitDy=0;entryX=0;entryY=0.5;entryDx=0;entryDy=0;" parent="1" source="FiNrAn-RYfqaF5m9vNkk-48" target="FiNrAn-RYfqaF5m9vNkk-50" edge="1">
          <mxGeometry relative="1" as="geometry" />
        </mxCell>
        <mxCell id="FiNrAn-RYfqaF5m9vNkk-48" value="&lt;font face=&quot;Courier New&quot;&gt;expresión&lt;/font&gt;" style="rounded=1;whiteSpace=wrap;html=1;" parent="1" vertex="1">
          <mxGeometry x="510" y="940" width="80" height="45" as="geometry" />
        </mxCell>
        <mxCell id="FiNrAn-RYfqaF5m9vNkk-50" value=";" style="ellipse;whiteSpace=wrap;html=1;aspect=fixed;fontStyle=1" parent="1" vertex="1">
          <mxGeometry x="650" y="947.5" width="30" height="30" as="geometry" />
        </mxCell>
        <mxCell id="FiNrAn-RYfqaF5m9vNkk-53" value="" style="endArrow=classic;startArrow=classic;html=1;rounded=0;" parent="1" edge="1">
          <mxGeometry width="50" height="50" relative="1" as="geometry">
            <mxPoint x="431" y="962" as="sourcePoint" />
            <mxPoint x="617" y="962" as="targetPoint" />
            <Array as="points">
              <mxPoint x="431" y="922" />
              <mxPoint x="501" y="922" />
              <mxPoint x="617" y="922" />
            </Array>
          </mxGeometry>
        </mxCell>
      </root>
    </mxGraphModel>
  </diagram>
  <diagram id="4HT-RfrGYjxdHvKQFyMK" name="expresiones">
    <mxGraphModel dx="1946" dy="1204" grid="1" gridSize="10" guides="1" tooltips="1" connect="1" arrows="1" fold="1" page="1" pageScale="1" pageWidth="850" pageHeight="1100" math="0" shadow="0">
      <root>
        <mxCell id="0" />
        <mxCell id="1" parent="0" />
        <mxCell id="7nsd5LNrbQpChkQbseyL-2" value="" style="endArrow=classic;html=1;rounded=0;" parent="1" edge="1">
          <mxGeometry width="50" height="50" relative="1" as="geometry">
            <mxPoint x="80" y="294" as="sourcePoint" />
            <mxPoint x="170" y="294.40999999999997" as="targetPoint" />
          </mxGeometry>
        </mxCell>
        <mxCell id="7nsd5LNrbQpChkQbseyL-3" style="edgeStyle=orthogonalEdgeStyle;rounded=0;orthogonalLoop=1;jettySize=auto;html=1;exitX=1;exitY=0.5;exitDx=0;exitDy=0;" parent="1" source="7nsd5LNrbQpChkQbseyL-4" target="7nsd5LNrbQpChkQbseyL-6" edge="1">
          <mxGeometry relative="1" as="geometry" />
        </mxCell>
        <mxCell id="7nsd5LNrbQpChkQbseyL-4" value="&lt;font style=&quot;font-size: 16px;&quot;&gt;=&lt;/font&gt;" style="ellipse;whiteSpace=wrap;html=1;aspect=fixed;fontStyle=1" parent="1" vertex="1">
          <mxGeometry x="320" y="280" width="30" height="30" as="geometry" />
        </mxCell>
        <mxCell id="7nsd5LNrbQpChkQbseyL-5" style="edgeStyle=orthogonalEdgeStyle;rounded=0;orthogonalLoop=1;jettySize=auto;html=1;exitX=1;exitY=0.5;exitDx=0;exitDy=0;" parent="1" source="7nsd5LNrbQpChkQbseyL-6" edge="1">
          <mxGeometry relative="1" as="geometry">
            <mxPoint x="620" y="295" as="targetPoint" />
          </mxGeometry>
        </mxCell>
        <mxCell id="7nsd5LNrbQpChkQbseyL-6" value="&lt;font face=&quot;Courier New&quot;&gt;Expresión simple&lt;/font&gt;" style="rounded=1;whiteSpace=wrap;html=1;" parent="1" vertex="1">
          <mxGeometry x="380" y="272.5" width="80" height="45" as="geometry" />
        </mxCell>
        <mxCell id="7nsd5LNrbQpChkQbseyL-20" value="" style="endArrow=classic;html=1;rounded=0;entryX=0;entryY=0.5;entryDx=0;entryDy=0;" parent="1" edge="1">
          <mxGeometry width="50" height="50" relative="1" as="geometry">
            <mxPoint x="295" y="295" as="sourcePoint" />
            <mxPoint x="320" y="375" as="targetPoint" />
            <Array as="points">
              <mxPoint x="295" y="375" />
            </Array>
          </mxGeometry>
        </mxCell>
        <mxCell id="7nsd5LNrbQpChkQbseyL-22" value="" style="endArrow=none;html=1;rounded=0;exitX=1;exitY=0.5;exitDx=0;exitDy=0;" parent="1" edge="1">
          <mxGeometry width="50" height="50" relative="1" as="geometry">
            <mxPoint x="520" y="375" as="sourcePoint" />
            <mxPoint x="570" y="300" as="targetPoint" />
            <Array as="points">
              <mxPoint x="570" y="375" />
            </Array>
          </mxGeometry>
        </mxCell>
        <mxCell id="7nsd5LNrbQpChkQbseyL-26" style="edgeStyle=orthogonalEdgeStyle;rounded=0;orthogonalLoop=1;jettySize=auto;html=1;exitX=1;exitY=0.5;exitDx=0;exitDy=0;" parent="1" source="7nsd5LNrbQpChkQbseyL-23" target="7nsd5LNrbQpChkQbseyL-4" edge="1">
          <mxGeometry relative="1" as="geometry" />
        </mxCell>
        <mxCell id="7nsd5LNrbQpChkQbseyL-23" value="&lt;font face=&quot;Courier New&quot;&gt;Expresión simple&lt;/font&gt;" style="rounded=1;whiteSpace=wrap;html=1;" parent="1" vertex="1">
          <mxGeometry x="170" y="272.5" width="80" height="45" as="geometry" />
        </mxCell>
        <mxCell id="7nsd5LNrbQpChkQbseyL-27" style="edgeStyle=orthogonalEdgeStyle;rounded=0;orthogonalLoop=1;jettySize=auto;html=1;exitX=1;exitY=0.5;exitDx=0;exitDy=0;" parent="1" source="7nsd5LNrbQpChkQbseyL-24" target="7nsd5LNrbQpChkQbseyL-25" edge="1">
          <mxGeometry relative="1" as="geometry" />
        </mxCell>
        <mxCell id="7nsd5LNrbQpChkQbseyL-24" value="&lt;font face=&quot;Courier New&quot;&gt;relación&lt;/font&gt;" style="rounded=1;whiteSpace=wrap;html=1;" parent="1" vertex="1">
          <mxGeometry x="320" y="352.5" width="80" height="45" as="geometry" />
        </mxCell>
        <mxCell id="7nsd5LNrbQpChkQbseyL-25" value="&lt;font face=&quot;Courier New&quot;&gt;Expresión simple&lt;/font&gt;" style="rounded=1;whiteSpace=wrap;html=1;" parent="1" vertex="1">
          <mxGeometry x="440" y="352.5" width="80" height="45" as="geometry" />
        </mxCell>
        <mxCell id="PFbEop5kIr8p1SEVx7js-1" value="Expresión" style="text;html=1;align=center;verticalAlign=middle;whiteSpace=wrap;rounded=0;fontFamily=Courier New;fontColor=#001DBC;" parent="1" vertex="1">
          <mxGeometry x="40" y="300" width="160" height="30" as="geometry" />
        </mxCell>
        <mxCell id="7CaXfMye9s0pL-2GKrfb-1" value="" style="endArrow=classic;startArrow=classic;html=1;rounded=0;" parent="1" edge="1">
          <mxGeometry width="50" height="50" relative="1" as="geometry">
            <mxPoint x="295" y="295" as="sourcePoint" />
            <mxPoint x="570" y="295" as="targetPoint" />
            <Array as="points">
              <mxPoint x="295" y="255" />
              <mxPoint x="365" y="255" />
              <mxPoint x="570" y="255" />
            </Array>
          </mxGeometry>
        </mxCell>
        <mxCell id="3Tjo50SaA051qAVRqzpt-1" value="&lt;b&gt;&lt;font face=&quot;Courier New&quot;&gt;!=&lt;/font&gt;&lt;/b&gt;" style="ellipse;whiteSpace=wrap;html=1;" parent="1" vertex="1">
          <mxGeometry x="185" y="430" width="50" height="50" as="geometry" />
        </mxCell>
        <mxCell id="3Tjo50SaA051qAVRqzpt-2" value="&lt;b&gt;&lt;font face=&quot;Courier New&quot;&gt;==&lt;/font&gt;&lt;/b&gt;" style="ellipse;whiteSpace=wrap;html=1;" parent="1" vertex="1">
          <mxGeometry x="185" y="500" width="50" height="50" as="geometry" />
        </mxCell>
        <mxCell id="3Tjo50SaA051qAVRqzpt-3" value="&lt;b&gt;&lt;font face=&quot;Courier New&quot;&gt;&amp;lt;&lt;/font&gt;&lt;/b&gt;" style="ellipse;whiteSpace=wrap;html=1;" parent="1" vertex="1">
          <mxGeometry x="185" y="570" width="50" height="50" as="geometry" />
        </mxCell>
        <mxCell id="3Tjo50SaA051qAVRqzpt-4" value="&lt;b&gt;&lt;font face=&quot;Courier New&quot;&gt;&amp;lt;=&lt;/font&gt;&lt;/b&gt;" style="ellipse;whiteSpace=wrap;html=1;" parent="1" vertex="1">
          <mxGeometry x="185" y="640" width="50" height="50" as="geometry" />
        </mxCell>
        <mxCell id="3Tjo50SaA051qAVRqzpt-5" value="" style="endArrow=classic;html=1;rounded=0;entryX=0;entryY=0.5;entryDx=0;entryDy=0;" parent="1" target="3Tjo50SaA051qAVRqzpt-1" edge="1">
          <mxGeometry width="50" height="50" relative="1" as="geometry">
            <mxPoint x="50" y="454.5" as="sourcePoint" />
            <mxPoint x="170" y="454.5" as="targetPoint" />
          </mxGeometry>
        </mxCell>
        <mxCell id="3Tjo50SaA051qAVRqzpt-6" value="relación" style="text;html=1;align=center;verticalAlign=middle;whiteSpace=wrap;rounded=0;fontFamily=Courier New;" parent="1" vertex="1">
          <mxGeometry x="70" y="460" width="60" height="30" as="geometry" />
        </mxCell>
        <mxCell id="3Tjo50SaA051qAVRqzpt-7" value="" style="endArrow=classic;html=1;rounded=0;entryX=0;entryY=0.5;entryDx=0;entryDy=0;" parent="1" target="3Tjo50SaA051qAVRqzpt-2" edge="1">
          <mxGeometry width="50" height="50" relative="1" as="geometry">
            <mxPoint x="160" y="460" as="sourcePoint" />
            <mxPoint x="390" y="410" as="targetPoint" />
            <Array as="points">
              <mxPoint x="160" y="525" />
            </Array>
          </mxGeometry>
        </mxCell>
        <mxCell id="3Tjo50SaA051qAVRqzpt-8" value="" style="endArrow=classic;html=1;rounded=0;entryX=0;entryY=0.5;entryDx=0;entryDy=0;" parent="1" edge="1">
          <mxGeometry width="50" height="50" relative="1" as="geometry">
            <mxPoint x="160" y="510" as="sourcePoint" />
            <mxPoint x="185" y="595" as="targetPoint" />
            <Array as="points">
              <mxPoint x="160" y="595" />
            </Array>
          </mxGeometry>
        </mxCell>
        <mxCell id="3Tjo50SaA051qAVRqzpt-9" value="" style="endArrow=classic;html=1;rounded=0;entryX=0;entryY=0.5;entryDx=0;entryDy=0;" parent="1" edge="1">
          <mxGeometry width="50" height="50" relative="1" as="geometry">
            <mxPoint x="160" y="590" as="sourcePoint" />
            <mxPoint x="185" y="665" as="targetPoint" />
            <Array as="points">
              <mxPoint x="160" y="665" />
            </Array>
          </mxGeometry>
        </mxCell>
        <mxCell id="3Tjo50SaA051qAVRqzpt-10" style="edgeStyle=orthogonalEdgeStyle;rounded=0;orthogonalLoop=1;jettySize=auto;html=1;exitX=1;exitY=0.5;exitDx=0;exitDy=0;entryX=0;entryY=0.5;entryDx=0;entryDy=0;" parent="1" edge="1">
          <mxGeometry relative="1" as="geometry">
            <mxPoint x="235" y="454.5" as="sourcePoint" />
            <mxPoint x="285" y="454.5" as="targetPoint" />
          </mxGeometry>
        </mxCell>
        <mxCell id="3Tjo50SaA051qAVRqzpt-11" value="" style="endArrow=none;html=1;rounded=0;exitX=1;exitY=0.5;exitDx=0;exitDy=0;" parent="1" source="3Tjo50SaA051qAVRqzpt-2" edge="1">
          <mxGeometry width="50" height="50" relative="1" as="geometry">
            <mxPoint x="340" y="460" as="sourcePoint" />
            <mxPoint x="260" y="460" as="targetPoint" />
            <Array as="points">
              <mxPoint x="260" y="525" />
            </Array>
          </mxGeometry>
        </mxCell>
        <mxCell id="3Tjo50SaA051qAVRqzpt-12" value="" style="endArrow=none;html=1;rounded=0;exitX=1;exitY=0.5;exitDx=0;exitDy=0;" parent="1" edge="1">
          <mxGeometry width="50" height="50" relative="1" as="geometry">
            <mxPoint x="235" y="595" as="sourcePoint" />
            <mxPoint x="260" y="510" as="targetPoint" />
            <Array as="points">
              <mxPoint x="260" y="595" />
            </Array>
          </mxGeometry>
        </mxCell>
        <mxCell id="3Tjo50SaA051qAVRqzpt-13" value="" style="endArrow=none;html=1;rounded=0;exitX=1;exitY=0.5;exitDx=0;exitDy=0;" parent="1" edge="1">
          <mxGeometry width="50" height="50" relative="1" as="geometry">
            <mxPoint x="235" y="665" as="sourcePoint" />
            <mxPoint x="260" y="590" as="targetPoint" />
            <Array as="points">
              <mxPoint x="260" y="665" />
            </Array>
          </mxGeometry>
        </mxCell>
        <mxCell id="3Tjo50SaA051qAVRqzpt-14" value="&lt;b&gt;&lt;font face=&quot;Courier New&quot;&gt;&amp;gt;=&lt;/font&gt;&lt;/b&gt;" style="ellipse;whiteSpace=wrap;html=1;" parent="1" vertex="1">
          <mxGeometry x="185" y="700" width="50" height="50" as="geometry" />
        </mxCell>
        <mxCell id="3Tjo50SaA051qAVRqzpt-15" value="&lt;b&gt;&lt;font face=&quot;Courier New&quot;&gt;&amp;gt;&lt;/font&gt;&lt;/b&gt;" style="ellipse;whiteSpace=wrap;html=1;" parent="1" vertex="1">
          <mxGeometry x="185" y="760" width="50" height="50" as="geometry" />
        </mxCell>
        <mxCell id="3Tjo50SaA051qAVRqzpt-16" value="" style="endArrow=classic;html=1;rounded=0;entryX=0;entryY=0.5;entryDx=0;entryDy=0;" parent="1" edge="1">
          <mxGeometry width="50" height="50" relative="1" as="geometry">
            <mxPoint x="160" y="650" as="sourcePoint" />
            <mxPoint x="185" y="725" as="targetPoint" />
            <Array as="points">
              <mxPoint x="160" y="725" />
            </Array>
          </mxGeometry>
        </mxCell>
        <mxCell id="3Tjo50SaA051qAVRqzpt-17" value="" style="endArrow=classic;html=1;rounded=0;entryX=0;entryY=0.5;entryDx=0;entryDy=0;" parent="1" edge="1">
          <mxGeometry width="50" height="50" relative="1" as="geometry">
            <mxPoint x="160" y="710" as="sourcePoint" />
            <mxPoint x="185" y="785" as="targetPoint" />
            <Array as="points">
              <mxPoint x="160" y="785" />
            </Array>
          </mxGeometry>
        </mxCell>
        <mxCell id="3Tjo50SaA051qAVRqzpt-18" value="" style="endArrow=none;html=1;rounded=0;exitX=1;exitY=0.5;exitDx=0;exitDy=0;" parent="1" edge="1">
          <mxGeometry width="50" height="50" relative="1" as="geometry">
            <mxPoint x="235" y="725" as="sourcePoint" />
            <mxPoint x="260" y="650" as="targetPoint" />
            <Array as="points">
              <mxPoint x="260" y="725" />
            </Array>
          </mxGeometry>
        </mxCell>
        <mxCell id="3Tjo50SaA051qAVRqzpt-19" value="" style="endArrow=none;html=1;rounded=0;exitX=1;exitY=0.5;exitDx=0;exitDy=0;" parent="1" edge="1">
          <mxGeometry width="50" height="50" relative="1" as="geometry">
            <mxPoint x="235" y="785" as="sourcePoint" />
            <mxPoint x="260" y="710" as="targetPoint" />
            <Array as="points">
              <mxPoint x="260" y="785" />
            </Array>
          </mxGeometry>
        </mxCell>
        <mxCell id="3Tjo50SaA051qAVRqzpt-58" value="&lt;b&gt;&lt;font face=&quot;Courier New&quot;&gt;+&lt;/font&gt;&lt;/b&gt;" style="ellipse;whiteSpace=wrap;html=1;" parent="1" vertex="1">
          <mxGeometry x="455" y="430" width="50" height="50" as="geometry" />
        </mxCell>
        <mxCell id="3Tjo50SaA051qAVRqzpt-59" value="&lt;b&gt;&lt;font face=&quot;Courier New&quot;&gt;-&lt;/font&gt;&lt;/b&gt;" style="ellipse;whiteSpace=wrap;html=1;" parent="1" vertex="1">
          <mxGeometry x="455" y="500" width="50" height="50" as="geometry" />
        </mxCell>
        <mxCell id="3Tjo50SaA051qAVRqzpt-60" value="" style="endArrow=classic;html=1;rounded=0;entryX=0;entryY=0.5;entryDx=0;entryDy=0;" parent="1" target="3Tjo50SaA051qAVRqzpt-58" edge="1">
          <mxGeometry width="50" height="50" relative="1" as="geometry">
            <mxPoint x="320" y="454.5" as="sourcePoint" />
            <mxPoint x="440" y="454.5" as="targetPoint" />
          </mxGeometry>
        </mxCell>
        <mxCell id="3Tjo50SaA051qAVRqzpt-61" value="Expresión simple" style="text;html=1;align=center;verticalAlign=middle;whiteSpace=wrap;rounded=0;fontFamily=Courier New;fontColor=#001DBC;" parent="1" vertex="1">
          <mxGeometry x="340" y="460" width="60" height="30" as="geometry" />
        </mxCell>
        <mxCell id="3Tjo50SaA051qAVRqzpt-62" value="" style="endArrow=classic;html=1;rounded=0;entryX=0;entryY=0.5;entryDx=0;entryDy=0;" parent="1" target="3Tjo50SaA051qAVRqzpt-59" edge="1">
          <mxGeometry width="50" height="50" relative="1" as="geometry">
            <mxPoint x="430" y="460" as="sourcePoint" />
            <mxPoint x="660" y="410" as="targetPoint" />
            <Array as="points">
              <mxPoint x="430" y="525" />
            </Array>
          </mxGeometry>
        </mxCell>
        <mxCell id="3Tjo50SaA051qAVRqzpt-63" style="edgeStyle=orthogonalEdgeStyle;rounded=0;orthogonalLoop=1;jettySize=auto;html=1;exitX=1;exitY=0.5;exitDx=0;exitDy=0;entryX=0;entryY=0.5;entryDx=0;entryDy=0;" parent="1" target="3Tjo50SaA051qAVRqzpt-65" edge="1">
          <mxGeometry relative="1" as="geometry">
            <mxPoint x="505" y="454.5" as="sourcePoint" />
            <mxPoint x="555" y="454.5" as="targetPoint" />
          </mxGeometry>
        </mxCell>
        <mxCell id="3Tjo50SaA051qAVRqzpt-64" value="" style="endArrow=none;html=1;rounded=0;exitX=1;exitY=0.5;exitDx=0;exitDy=0;" parent="1" source="3Tjo50SaA051qAVRqzpt-59" edge="1">
          <mxGeometry width="50" height="50" relative="1" as="geometry">
            <mxPoint x="610" y="460" as="sourcePoint" />
            <mxPoint x="530" y="460" as="targetPoint" />
            <Array as="points">
              <mxPoint x="530" y="525" />
            </Array>
          </mxGeometry>
        </mxCell>
        <mxCell id="3Tjo50SaA051qAVRqzpt-74" style="edgeStyle=orthogonalEdgeStyle;rounded=0;orthogonalLoop=1;jettySize=auto;html=1;exitX=1;exitY=0.5;exitDx=0;exitDy=0;entryX=0;entryY=0.5;entryDx=0;entryDy=0;" parent="1" source="3Tjo50SaA051qAVRqzpt-65" target="3Tjo50SaA051qAVRqzpt-66" edge="1">
          <mxGeometry relative="1" as="geometry">
            <mxPoint x="690" y="457.42857142857156" as="targetPoint" />
          </mxGeometry>
        </mxCell>
        <mxCell id="3Tjo50SaA051qAVRqzpt-65" value="&lt;font face=&quot;Courier New&quot;&gt;Término&lt;/font&gt;" style="rounded=1;whiteSpace=wrap;html=1;" parent="1" vertex="1">
          <mxGeometry x="560" y="432" width="80" height="45" as="geometry" />
        </mxCell>
        <mxCell id="3Tjo50SaA051qAVRqzpt-66" value="&lt;b&gt;&lt;font face=&quot;Courier New&quot;&gt;+&lt;/font&gt;&lt;/b&gt;" style="ellipse;whiteSpace=wrap;html=1;" parent="1" vertex="1">
          <mxGeometry x="705" y="430" width="50" height="50" as="geometry" />
        </mxCell>
        <mxCell id="3Tjo50SaA051qAVRqzpt-67" value="&lt;b&gt;&lt;font face=&quot;Courier New&quot;&gt;-&lt;/font&gt;&lt;/b&gt;" style="ellipse;whiteSpace=wrap;html=1;" parent="1" vertex="1">
          <mxGeometry x="705" y="500" width="50" height="50" as="geometry" />
        </mxCell>
        <mxCell id="3Tjo50SaA051qAVRqzpt-69" value="" style="endArrow=classic;html=1;rounded=0;entryX=0;entryY=0.5;entryDx=0;entryDy=0;" parent="1" edge="1">
          <mxGeometry width="50" height="50" relative="1" as="geometry">
            <mxPoint x="680" y="510" as="sourcePoint" />
            <mxPoint x="705" y="595" as="targetPoint" />
            <Array as="points">
              <mxPoint x="680" y="595" />
            </Array>
          </mxGeometry>
        </mxCell>
        <mxCell id="3Tjo50SaA051qAVRqzpt-70" style="edgeStyle=orthogonalEdgeStyle;rounded=0;orthogonalLoop=1;jettySize=auto;html=1;exitX=1;exitY=0.5;exitDx=0;exitDy=0;entryX=0;entryY=0.5;entryDx=0;entryDy=0;" parent="1" edge="1">
          <mxGeometry relative="1" as="geometry">
            <mxPoint x="755" y="459.5" as="sourcePoint" />
            <mxPoint x="805" y="459.5" as="targetPoint" />
          </mxGeometry>
        </mxCell>
        <mxCell id="3Tjo50SaA051qAVRqzpt-72" value="" style="endArrow=none;html=1;rounded=0;exitX=1;exitY=0.5;exitDx=0;exitDy=0;" parent="1" edge="1">
          <mxGeometry width="50" height="50" relative="1" as="geometry">
            <mxPoint x="755" y="595" as="sourcePoint" />
            <mxPoint x="780" y="510" as="targetPoint" />
            <Array as="points">
              <mxPoint x="780" y="595" />
            </Array>
          </mxGeometry>
        </mxCell>
        <mxCell id="3Tjo50SaA051qAVRqzpt-73" value="&lt;b&gt;&lt;font face=&quot;Courier New&quot;&gt;||&lt;/font&gt;&lt;/b&gt;" style="ellipse;whiteSpace=wrap;html=1;" parent="1" vertex="1">
          <mxGeometry x="705" y="570" width="50" height="50" as="geometry" />
        </mxCell>
        <mxCell id="3Tjo50SaA051qAVRqzpt-76" value="" style="endArrow=classic;html=1;rounded=0;entryX=0;entryY=0.5;entryDx=0;entryDy=0;" parent="1" edge="1">
          <mxGeometry width="50" height="50" relative="1" as="geometry">
            <mxPoint x="680" y="460" as="sourcePoint" />
            <mxPoint x="705" y="525" as="targetPoint" />
            <Array as="points">
              <mxPoint x="680" y="525" />
            </Array>
          </mxGeometry>
        </mxCell>
        <mxCell id="3Tjo50SaA051qAVRqzpt-79" style="edgeStyle=orthogonalEdgeStyle;rounded=0;orthogonalLoop=1;jettySize=auto;html=1;exitX=1;exitY=0.5;exitDx=0;exitDy=0;" parent="1" source="3Tjo50SaA051qAVRqzpt-77" edge="1">
          <mxGeometry relative="1" as="geometry">
            <mxPoint x="930" y="457.42857142857156" as="targetPoint" />
          </mxGeometry>
        </mxCell>
        <mxCell id="3Tjo50SaA051qAVRqzpt-77" value="&lt;font face=&quot;Courier New&quot;&gt;Término&lt;/font&gt;" style="rounded=1;whiteSpace=wrap;html=1;" parent="1" vertex="1">
          <mxGeometry x="810" y="435" width="80" height="45" as="geometry" />
        </mxCell>
        <mxCell id="3Tjo50SaA051qAVRqzpt-78" value="" style="endArrow=none;html=1;rounded=0;exitX=1;exitY=0.5;exitDx=0;exitDy=0;" parent="1" edge="1">
          <mxGeometry width="50" height="50" relative="1" as="geometry">
            <mxPoint x="755" y="525" as="sourcePoint" />
            <mxPoint x="780" y="460" as="targetPoint" />
            <Array as="points">
              <mxPoint x="780" y="525" />
            </Array>
          </mxGeometry>
        </mxCell>
        <mxCell id="MjKxMAYjUYzlEX49-4sn-1" value="" style="endArrow=classic;startArrow=classic;html=1;rounded=0;" parent="1" edge="1">
          <mxGeometry width="50" height="50" relative="1" as="geometry">
            <mxPoint x="680" y="454" as="sourcePoint" />
            <mxPoint x="906" y="460" as="targetPoint" />
            <Array as="points">
              <mxPoint x="680" y="414" />
              <mxPoint x="790" y="414" />
              <mxPoint x="906" y="414" />
            </Array>
          </mxGeometry>
        </mxCell>
        <mxCell id="ayHMRHNy0C3MPNLCTk_V-1" value="" style="endArrow=classic;html=1;rounded=0;" parent="1" edge="1">
          <mxGeometry width="50" height="50" relative="1" as="geometry">
            <mxPoint x="380" y="454" as="sourcePoint" />
            <mxPoint x="536" y="454" as="targetPoint" />
            <Array as="points">
              <mxPoint x="380" y="414" />
              <mxPoint x="536" y="414" />
            </Array>
          </mxGeometry>
        </mxCell>
        <mxCell id="ayHMRHNy0C3MPNLCTk_V-2" style="edgeStyle=orthogonalEdgeStyle;rounded=0;orthogonalLoop=1;jettySize=auto;html=1;exitX=1;exitY=0.5;exitDx=0;exitDy=0;entryX=0;entryY=0.5;entryDx=0;entryDy=0;" parent="1" source="ayHMRHNy0C3MPNLCTk_V-3" target="ayHMRHNy0C3MPNLCTk_V-4" edge="1">
          <mxGeometry relative="1" as="geometry">
            <mxPoint x="690" y="683.4285714285716" as="targetPoint" />
          </mxGeometry>
        </mxCell>
        <mxCell id="ayHMRHNy0C3MPNLCTk_V-3" value="&lt;font face=&quot;Courier New&quot;&gt;Factor&lt;/font&gt;" style="rounded=1;whiteSpace=wrap;html=1;" parent="1" vertex="1">
          <mxGeometry x="560" y="658" width="80" height="45" as="geometry" />
        </mxCell>
        <mxCell id="ayHMRHNy0C3MPNLCTk_V-4" value="&lt;b&gt;&lt;font face=&quot;Courier New&quot;&gt;*&lt;/font&gt;&lt;/b&gt;" style="ellipse;whiteSpace=wrap;html=1;" parent="1" vertex="1">
          <mxGeometry x="705" y="656" width="50" height="50" as="geometry" />
        </mxCell>
        <mxCell id="ayHMRHNy0C3MPNLCTk_V-5" value="&lt;span&gt;&lt;font face=&quot;Courier New&quot;&gt;/&lt;/font&gt;&lt;/span&gt;" style="ellipse;whiteSpace=wrap;html=1;fontStyle=1" parent="1" vertex="1">
          <mxGeometry x="705" y="726" width="50" height="50" as="geometry" />
        </mxCell>
        <mxCell id="ayHMRHNy0C3MPNLCTk_V-6" value="" style="endArrow=classic;html=1;rounded=0;entryX=0;entryY=0.5;entryDx=0;entryDy=0;" parent="1" edge="1">
          <mxGeometry width="50" height="50" relative="1" as="geometry">
            <mxPoint x="680" y="736" as="sourcePoint" />
            <mxPoint x="705" y="821" as="targetPoint" />
            <Array as="points">
              <mxPoint x="680" y="821" />
            </Array>
          </mxGeometry>
        </mxCell>
        <mxCell id="ayHMRHNy0C3MPNLCTk_V-7" style="edgeStyle=orthogonalEdgeStyle;rounded=0;orthogonalLoop=1;jettySize=auto;html=1;exitX=1;exitY=0.5;exitDx=0;exitDy=0;entryX=0;entryY=0.5;entryDx=0;entryDy=0;" parent="1" edge="1">
          <mxGeometry relative="1" as="geometry">
            <mxPoint x="755" y="685.5" as="sourcePoint" />
            <mxPoint x="805" y="685.5" as="targetPoint" />
          </mxGeometry>
        </mxCell>
        <mxCell id="ayHMRHNy0C3MPNLCTk_V-8" value="" style="endArrow=none;html=1;rounded=0;exitX=1;exitY=0.5;exitDx=0;exitDy=0;" parent="1" edge="1">
          <mxGeometry width="50" height="50" relative="1" as="geometry">
            <mxPoint x="755" y="821" as="sourcePoint" />
            <mxPoint x="780" y="736" as="targetPoint" />
            <Array as="points">
              <mxPoint x="780" y="821" />
            </Array>
          </mxGeometry>
        </mxCell>
        <mxCell id="ayHMRHNy0C3MPNLCTk_V-9" value="&lt;b&gt;&lt;font face=&quot;Courier New&quot;&gt;&amp;amp;&amp;amp;&lt;/font&gt;&lt;/b&gt;" style="ellipse;whiteSpace=wrap;html=1;" parent="1" vertex="1">
          <mxGeometry x="705" y="796" width="50" height="50" as="geometry" />
        </mxCell>
        <mxCell id="ayHMRHNy0C3MPNLCTk_V-10" value="" style="endArrow=classic;html=1;rounded=0;entryX=0;entryY=0.5;entryDx=0;entryDy=0;" parent="1" edge="1">
          <mxGeometry width="50" height="50" relative="1" as="geometry">
            <mxPoint x="680" y="686" as="sourcePoint" />
            <mxPoint x="705" y="751" as="targetPoint" />
            <Array as="points">
              <mxPoint x="680" y="751" />
            </Array>
          </mxGeometry>
        </mxCell>
        <mxCell id="ayHMRHNy0C3MPNLCTk_V-11" style="edgeStyle=orthogonalEdgeStyle;rounded=0;orthogonalLoop=1;jettySize=auto;html=1;exitX=1;exitY=0.5;exitDx=0;exitDy=0;" parent="1" source="ayHMRHNy0C3MPNLCTk_V-12" edge="1">
          <mxGeometry relative="1" as="geometry">
            <mxPoint x="930" y="683.4285714285716" as="targetPoint" />
          </mxGeometry>
        </mxCell>
        <mxCell id="ayHMRHNy0C3MPNLCTk_V-12" value="&lt;font face=&quot;Courier New&quot;&gt;Factor&lt;/font&gt;" style="rounded=1;whiteSpace=wrap;html=1;" parent="1" vertex="1">
          <mxGeometry x="810" y="661" width="80" height="45" as="geometry" />
        </mxCell>
        <mxCell id="ayHMRHNy0C3MPNLCTk_V-13" value="" style="endArrow=none;html=1;rounded=0;exitX=1;exitY=0.5;exitDx=0;exitDy=0;" parent="1" edge="1">
          <mxGeometry width="50" height="50" relative="1" as="geometry">
            <mxPoint x="755" y="751" as="sourcePoint" />
            <mxPoint x="780" y="686" as="targetPoint" />
            <Array as="points">
              <mxPoint x="780" y="751" />
            </Array>
          </mxGeometry>
        </mxCell>
        <mxCell id="ayHMRHNy0C3MPNLCTk_V-14" value="" style="endArrow=classic;startArrow=classic;html=1;rounded=0;" parent="1" edge="1">
          <mxGeometry width="50" height="50" relative="1" as="geometry">
            <mxPoint x="680" y="680" as="sourcePoint" />
            <mxPoint x="906" y="686" as="targetPoint" />
            <Array as="points">
              <mxPoint x="680" y="640" />
              <mxPoint x="790" y="640" />
              <mxPoint x="906" y="640" />
            </Array>
          </mxGeometry>
        </mxCell>
        <mxCell id="ayHMRHNy0C3MPNLCTk_V-15" value="" style="endArrow=classic;html=1;rounded=0;entryX=0;entryY=0.5;entryDx=0;entryDy=0;" parent="1" edge="1">
          <mxGeometry width="50" height="50" relative="1" as="geometry">
            <mxPoint x="425" y="682.79" as="sourcePoint" />
            <mxPoint x="560" y="683.29" as="targetPoint" />
          </mxGeometry>
        </mxCell>
        <mxCell id="ayHMRHNy0C3MPNLCTk_V-16" value="Término" style="text;html=1;align=center;verticalAlign=middle;whiteSpace=wrap;rounded=0;fontFamily=Courier New;fontColor=#001DBC;" parent="1" vertex="1">
          <mxGeometry x="470" y="690" width="60" height="30" as="geometry" />
        </mxCell>
        <mxCell id="ayHMRHNy0C3MPNLCTk_V-18" value="&lt;b&gt;&lt;font face=&quot;Courier New&quot;&gt;cons_ent&lt;/font&gt;&lt;/b&gt;" style="ellipse;whiteSpace=wrap;html=1;" parent="1" vertex="1">
          <mxGeometry x="185" y="830" width="65" height="50" as="geometry" />
        </mxCell>
        <mxCell id="ayHMRHNy0C3MPNLCTk_V-20" value="" style="endArrow=classic;html=1;rounded=0;entryX=0;entryY=0.5;entryDx=0;entryDy=0;" parent="1" target="ayHMRHNy0C3MPNLCTk_V-18" edge="1">
          <mxGeometry width="50" height="50" relative="1" as="geometry">
            <mxPoint x="50" y="854.5" as="sourcePoint" />
            <mxPoint x="170" y="854.5" as="targetPoint" />
          </mxGeometry>
        </mxCell>
        <mxCell id="ayHMRHNy0C3MPNLCTk_V-21" value="Constante" style="text;html=1;align=center;verticalAlign=middle;whiteSpace=wrap;rounded=0;fontFamily=Courier New;fontColor=#001DBC;" parent="1" vertex="1">
          <mxGeometry x="70" y="860" width="60" height="30" as="geometry" />
        </mxCell>
        <mxCell id="ayHMRHNy0C3MPNLCTk_V-22" value="" style="endArrow=classic;html=1;rounded=0;entryX=0;entryY=0.5;entryDx=0;entryDy=0;" parent="1" edge="1">
          <mxGeometry width="50" height="50" relative="1" as="geometry">
            <mxPoint x="160" y="860" as="sourcePoint" />
            <mxPoint x="185.0000000000132" y="925" as="targetPoint" />
            <Array as="points">
              <mxPoint x="160" y="925" />
            </Array>
          </mxGeometry>
        </mxCell>
        <mxCell id="ayHMRHNy0C3MPNLCTk_V-23" value="" style="endArrow=classic;html=1;rounded=0;entryX=0;entryY=0.5;entryDx=0;entryDy=0;" parent="1" edge="1">
          <mxGeometry width="50" height="50" relative="1" as="geometry">
            <mxPoint x="160" y="910" as="sourcePoint" />
            <mxPoint x="185" y="995" as="targetPoint" />
            <Array as="points">
              <mxPoint x="160" y="995" />
            </Array>
          </mxGeometry>
        </mxCell>
        <mxCell id="ayHMRHNy0C3MPNLCTk_V-24" style="edgeStyle=orthogonalEdgeStyle;rounded=0;orthogonalLoop=1;jettySize=auto;html=1;exitX=1;exitY=0.5;exitDx=0;exitDy=0;entryX=0;entryY=0.5;entryDx=0;entryDy=0;" parent="1" edge="1">
          <mxGeometry relative="1" as="geometry">
            <mxPoint x="250" y="855.5" as="sourcePoint" />
            <mxPoint x="300" y="855.5" as="targetPoint" />
          </mxGeometry>
        </mxCell>
        <mxCell id="ayHMRHNy0C3MPNLCTk_V-25" value="" style="endArrow=none;html=1;rounded=0;exitX=1;exitY=0.5;exitDx=0;exitDy=0;" parent="1" edge="1">
          <mxGeometry width="50" height="50" relative="1" as="geometry">
            <mxPoint x="259.99999999998636" y="925" as="sourcePoint" />
            <mxPoint x="285" y="860" as="targetPoint" />
            <Array as="points">
              <mxPoint x="285" y="925" />
            </Array>
          </mxGeometry>
        </mxCell>
        <mxCell id="ayHMRHNy0C3MPNLCTk_V-26" value="" style="endArrow=none;html=1;rounded=0;exitX=1;exitY=0.5;exitDx=0;exitDy=0;" parent="1" source="ayHMRHNy0C3MPNLCTk_V-29" edge="1">
          <mxGeometry width="50" height="50" relative="1" as="geometry">
            <mxPoint x="260" y="995" as="sourcePoint" />
            <mxPoint x="285" y="910" as="targetPoint" />
            <Array as="points">
              <mxPoint x="285" y="995" />
            </Array>
          </mxGeometry>
        </mxCell>
        <mxCell id="ayHMRHNy0C3MPNLCTk_V-28" value="&lt;b&gt;&lt;font face=&quot;Courier New&quot;&gt;cons_float&lt;/font&gt;&lt;/b&gt;" style="ellipse;whiteSpace=wrap;html=1;" parent="1" vertex="1">
          <mxGeometry x="185" y="900" width="85" height="50" as="geometry" />
        </mxCell>
        <mxCell id="ayHMRHNy0C3MPNLCTk_V-29" value="&lt;b&gt;&lt;font face=&quot;Courier New&quot;&gt;cons_car&lt;/font&gt;&lt;/b&gt;" style="ellipse;whiteSpace=wrap;html=1;" parent="1" vertex="1">
          <mxGeometry x="185" y="970" width="65" height="50" as="geometry" />
        </mxCell>
        <mxCell id="R-quv5kx8jFNlj19PJC8-1" value="Lista de expresiones" style="text;html=1;align=center;verticalAlign=middle;whiteSpace=wrap;rounded=0;fontFamily=Courier New;fontColor=#001DBC;" parent="1" vertex="1">
          <mxGeometry x="420" y="930" width="160" height="30" as="geometry" />
        </mxCell>
        <mxCell id="R-quv5kx8jFNlj19PJC8-2" value="" style="endArrow=classic;html=1;rounded=0;" parent="1" edge="1">
          <mxGeometry width="50" height="50" relative="1" as="geometry">
            <mxPoint x="425" y="920" as="sourcePoint" />
            <mxPoint x="575" y="920" as="targetPoint" />
          </mxGeometry>
        </mxCell>
        <mxCell id="R-quv5kx8jFNlj19PJC8-3" style="edgeStyle=orthogonalEdgeStyle;rounded=0;orthogonalLoop=1;jettySize=auto;html=1;exitX=1;exitY=0.5;exitDx=0;exitDy=0;entryX=0;entryY=0.5;entryDx=0;entryDy=0;" parent="1" edge="1">
          <mxGeometry relative="1" as="geometry">
            <mxPoint x="661" y="920" as="sourcePoint" />
            <mxPoint x="694.9999999999786" y="920" as="targetPoint" />
          </mxGeometry>
        </mxCell>
        <mxCell id="R-quv5kx8jFNlj19PJC8-4" style="edgeStyle=orthogonalEdgeStyle;rounded=0;orthogonalLoop=1;jettySize=auto;html=1;exitX=1;exitY=0.5;exitDx=0;exitDy=0;" parent="1" source="R-quv5kx8jFNlj19PJC8-5" edge="1">
          <mxGeometry relative="1" as="geometry">
            <mxPoint x="750" y="920" as="targetPoint" />
          </mxGeometry>
        </mxCell>
        <mxCell id="R-quv5kx8jFNlj19PJC8-5" value="&lt;font style=&quot;font-size: 16px;&quot;&gt;,&lt;/font&gt;" style="ellipse;whiteSpace=wrap;html=1;aspect=fixed;fontStyle=1" parent="1" vertex="1">
          <mxGeometry x="696" y="905" width="30" height="30" as="geometry" />
        </mxCell>
        <mxCell id="R-quv5kx8jFNlj19PJC8-6" style="edgeStyle=orthogonalEdgeStyle;rounded=0;orthogonalLoop=1;jettySize=auto;html=1;exitX=1;exitY=0.5;exitDx=0;exitDy=0;" parent="1" edge="1">
          <mxGeometry relative="1" as="geometry">
            <mxPoint x="830" y="919.5799999999999" as="sourcePoint" />
            <mxPoint x="890" y="920" as="targetPoint" />
          </mxGeometry>
        </mxCell>
        <mxCell id="R-quv5kx8jFNlj19PJC8-7" value="&lt;font face=&quot;Courier New&quot;&gt;Expresión&lt;/font&gt;" style="rounded=1;whiteSpace=wrap;html=1;" parent="1" vertex="1">
          <mxGeometry x="580" y="897.5" width="90" height="45" as="geometry" />
        </mxCell>
        <mxCell id="R-quv5kx8jFNlj19PJC8-8" value="" style="endArrow=classic;startArrow=classic;html=1;rounded=0;" parent="1" edge="1">
          <mxGeometry width="50" height="50" relative="1" as="geometry">
            <mxPoint x="679" y="920" as="sourcePoint" />
            <mxPoint x="859" y="920" as="targetPoint" />
            <Array as="points">
              <mxPoint x="679" y="880" />
              <mxPoint x="749" y="880" />
              <mxPoint x="859" y="880" />
            </Array>
          </mxGeometry>
        </mxCell>
        <mxCell id="R-quv5kx8jFNlj19PJC8-9" value="&lt;font face=&quot;Courier New&quot;&gt;Expresión&lt;/font&gt;" style="rounded=1;whiteSpace=wrap;html=1;" parent="1" vertex="1">
          <mxGeometry x="750" y="897.5" width="90" height="45" as="geometry" />
        </mxCell>
        <mxCell id="0aWQUQCU99pAqzre5PwO-1" value="Llamada a función" style="text;html=1;align=center;verticalAlign=middle;whiteSpace=wrap;rounded=0;fontFamily=Courier New;fontColor=#001DBC;" parent="1" vertex="1">
          <mxGeometry x="50" y="1152.5" width="160" height="30" as="geometry" />
        </mxCell>
        <mxCell id="0aWQUQCU99pAqzre5PwO-2" value="" style="endArrow=classic;html=1;rounded=0;" parent="1" edge="1">
          <mxGeometry width="50" height="50" relative="1" as="geometry">
            <mxPoint x="60" y="1147" as="sourcePoint" />
            <mxPoint x="210" y="1147" as="targetPoint" />
          </mxGeometry>
        </mxCell>
        <mxCell id="0aWQUQCU99pAqzre5PwO-20" style="edgeStyle=orthogonalEdgeStyle;rounded=0;orthogonalLoop=1;jettySize=auto;html=1;exitX=1;exitY=0.5;exitDx=0;exitDy=0;entryX=0;entryY=0.5;entryDx=0;entryDy=0;" parent="1" source="0aWQUQCU99pAqzre5PwO-4" target="0aWQUQCU99pAqzre5PwO-12" edge="1">
          <mxGeometry relative="1" as="geometry" />
        </mxCell>
        <mxCell id="0aWQUQCU99pAqzre5PwO-4" value="Lista de expresiones" style="rounded=1;whiteSpace=wrap;html=1;" parent="1" vertex="1">
          <mxGeometry x="370" y="1122.5" width="90" height="45" as="geometry" />
        </mxCell>
        <mxCell id="0aWQUQCU99pAqzre5PwO-18" style="edgeStyle=orthogonalEdgeStyle;rounded=0;orthogonalLoop=1;jettySize=auto;html=1;exitX=1;exitY=0.5;exitDx=0;exitDy=0;entryX=0;entryY=0.5;entryDx=0;entryDy=0;" parent="1" source="0aWQUQCU99pAqzre5PwO-8" target="0aWQUQCU99pAqzre5PwO-10" edge="1">
          <mxGeometry relative="1" as="geometry" />
        </mxCell>
        <mxCell id="0aWQUQCU99pAqzre5PwO-8" value="&lt;b&gt;&lt;font face=&quot;Courier New&quot;&gt;ident&lt;/font&gt;&lt;/b&gt;" style="ellipse;whiteSpace=wrap;html=1;" parent="1" vertex="1">
          <mxGeometry x="210" y="1120" width="50" height="50" as="geometry" />
        </mxCell>
        <mxCell id="0aWQUQCU99pAqzre5PwO-19" style="edgeStyle=orthogonalEdgeStyle;rounded=0;orthogonalLoop=1;jettySize=auto;html=1;exitX=1;exitY=0.5;exitDx=0;exitDy=0;entryX=0;entryY=0.5;entryDx=0;entryDy=0;" parent="1" source="0aWQUQCU99pAqzre5PwO-10" target="0aWQUQCU99pAqzre5PwO-4" edge="1">
          <mxGeometry relative="1" as="geometry" />
        </mxCell>
        <mxCell id="0aWQUQCU99pAqzre5PwO-10" value="&lt;font style=&quot;font-size: 16px;&quot;&gt;(&lt;/font&gt;" style="ellipse;whiteSpace=wrap;html=1;aspect=fixed;fontStyle=1" parent="1" vertex="1">
          <mxGeometry x="290" y="1130" width="30" height="30" as="geometry" />
        </mxCell>
        <mxCell id="0aWQUQCU99pAqzre5PwO-11" style="edgeStyle=orthogonalEdgeStyle;rounded=0;orthogonalLoop=1;jettySize=auto;html=1;exitX=1;exitY=0.5;exitDx=0;exitDy=0;" parent="1" source="0aWQUQCU99pAqzre5PwO-12" edge="1">
          <mxGeometry relative="1" as="geometry">
            <mxPoint x="580" y="1145.5" as="targetPoint" />
          </mxGeometry>
        </mxCell>
        <mxCell id="0aWQUQCU99pAqzre5PwO-12" value="&lt;span style=&quot;font-size: 16px;&quot;&gt;)&lt;/span&gt;" style="ellipse;whiteSpace=wrap;html=1;aspect=fixed;fontStyle=1" parent="1" vertex="1">
          <mxGeometry x="510" y="1130" width="30" height="30" as="geometry" />
        </mxCell>
        <mxCell id="0aWQUQCU99pAqzre5PwO-21" value="" style="endArrow=classic;html=1;rounded=0;" parent="1" edge="1">
          <mxGeometry width="50" height="50" relative="1" as="geometry">
            <mxPoint x="334" y="1145" as="sourcePoint" />
            <mxPoint x="490" y="1145" as="targetPoint" />
            <Array as="points">
              <mxPoint x="334" y="1105" />
              <mxPoint x="490" y="1105" />
            </Array>
          </mxGeometry>
        </mxCell>
        <mxCell id="0aWQUQCU99pAqzre5PwO-22" value="Variable" style="text;html=1;align=center;verticalAlign=middle;whiteSpace=wrap;rounded=0;fontFamily=Courier New;fontColor=#001DBC;" parent="1" vertex="1">
          <mxGeometry x="50" y="1267.5" width="160" height="30" as="geometry" />
        </mxCell>
        <mxCell id="0aWQUQCU99pAqzre5PwO-23" value="" style="endArrow=classic;html=1;rounded=0;" parent="1" edge="1">
          <mxGeometry width="50" height="50" relative="1" as="geometry">
            <mxPoint x="60" y="1262" as="sourcePoint" />
            <mxPoint x="210" y="1262" as="targetPoint" />
          </mxGeometry>
        </mxCell>
        <mxCell id="0aWQUQCU99pAqzre5PwO-24" style="edgeStyle=orthogonalEdgeStyle;rounded=0;orthogonalLoop=1;jettySize=auto;html=1;exitX=1;exitY=0.5;exitDx=0;exitDy=0;entryX=0;entryY=0.5;entryDx=0;entryDy=0;" parent="1" target="0aWQUQCU99pAqzre5PwO-31" edge="1">
          <mxGeometry relative="1" as="geometry">
            <mxPoint x="460" y="1260" as="sourcePoint" />
          </mxGeometry>
        </mxCell>
        <mxCell id="0aWQUQCU99pAqzre5PwO-26" style="edgeStyle=orthogonalEdgeStyle;rounded=0;orthogonalLoop=1;jettySize=auto;html=1;exitX=1;exitY=0.5;exitDx=0;exitDy=0;entryX=0;entryY=0.5;entryDx=0;entryDy=0;" parent="1" source="0aWQUQCU99pAqzre5PwO-27" target="0aWQUQCU99pAqzre5PwO-29" edge="1">
          <mxGeometry relative="1" as="geometry" />
        </mxCell>
        <mxCell id="0aWQUQCU99pAqzre5PwO-27" value="&lt;b&gt;&lt;font face=&quot;Courier New&quot;&gt;ident&lt;/font&gt;&lt;/b&gt;" style="ellipse;whiteSpace=wrap;html=1;" parent="1" vertex="1">
          <mxGeometry x="210" y="1235" width="50" height="50" as="geometry" />
        </mxCell>
        <mxCell id="0aWQUQCU99pAqzre5PwO-28" style="edgeStyle=orthogonalEdgeStyle;rounded=0;orthogonalLoop=1;jettySize=auto;html=1;exitX=1;exitY=0.5;exitDx=0;exitDy=0;entryX=0;entryY=0.5;entryDx=0;entryDy=0;" parent="1" source="0aWQUQCU99pAqzre5PwO-29" edge="1">
          <mxGeometry relative="1" as="geometry">
            <mxPoint x="370" y="1260" as="targetPoint" />
          </mxGeometry>
        </mxCell>
        <mxCell id="0aWQUQCU99pAqzre5PwO-29" value="&lt;font style=&quot;font-size: 16px;&quot;&gt;[&lt;/font&gt;" style="ellipse;whiteSpace=wrap;html=1;aspect=fixed;fontStyle=1" parent="1" vertex="1">
          <mxGeometry x="290" y="1245" width="30" height="30" as="geometry" />
        </mxCell>
        <mxCell id="0aWQUQCU99pAqzre5PwO-30" style="edgeStyle=orthogonalEdgeStyle;rounded=0;orthogonalLoop=1;jettySize=auto;html=1;exitX=1;exitY=0.5;exitDx=0;exitDy=0;" parent="1" source="0aWQUQCU99pAqzre5PwO-31" edge="1">
          <mxGeometry relative="1" as="geometry">
            <mxPoint x="580" y="1260.5" as="targetPoint" />
          </mxGeometry>
        </mxCell>
        <mxCell id="0aWQUQCU99pAqzre5PwO-31" value="&lt;span style=&quot;font-size: 16px;&quot;&gt;]&lt;/span&gt;" style="ellipse;whiteSpace=wrap;html=1;aspect=fixed;fontStyle=1" parent="1" vertex="1">
          <mxGeometry x="510" y="1245" width="30" height="30" as="geometry" />
        </mxCell>
        <mxCell id="0aWQUQCU99pAqzre5PwO-32" value="" style="endArrow=classic;html=1;rounded=0;" parent="1" edge="1">
          <mxGeometry width="50" height="50" relative="1" as="geometry">
            <mxPoint x="334" y="1260" as="sourcePoint" />
            <mxPoint x="490" y="1260" as="targetPoint" />
            <Array as="points">
              <mxPoint x="334" y="1220" />
              <mxPoint x="490" y="1220" />
            </Array>
          </mxGeometry>
        </mxCell>
        <mxCell id="0aWQUQCU99pAqzre5PwO-33" value="&lt;font face=&quot;Courier New&quot;&gt;Expresión&lt;/font&gt;" style="rounded=1;whiteSpace=wrap;html=1;" parent="1" vertex="1">
          <mxGeometry x="370" y="1235" width="90" height="45" as="geometry" />
        </mxCell>
        <mxCell id="0aWQUQCU99pAqzre5PwO-36" style="edgeStyle=orthogonalEdgeStyle;rounded=0;orthogonalLoop=1;jettySize=auto;html=1;exitX=1;exitY=0.5;exitDx=0;exitDy=0;" parent="1" source="0aWQUQCU99pAqzre5PwO-34" edge="1">
          <mxGeometry relative="1" as="geometry">
            <mxPoint x="560" y="1260" as="targetPoint" />
          </mxGeometry>
        </mxCell>
        <mxCell id="0aWQUQCU99pAqzre5PwO-34" value="&lt;b&gt;&lt;font face=&quot;Courier New&quot;&gt;ident&lt;/font&gt;&lt;/b&gt;" style="ellipse;whiteSpace=wrap;html=1;" parent="1" vertex="1">
          <mxGeometry x="210" y="1310" width="50" height="50" as="geometry" />
        </mxCell>
        <mxCell id="0aWQUQCU99pAqzre5PwO-35" value="" style="endArrow=classic;html=1;rounded=0;entryX=0;entryY=0.5;entryDx=0;entryDy=0;" parent="1" target="0aWQUQCU99pAqzre5PwO-34" edge="1">
          <mxGeometry width="50" height="50" relative="1" as="geometry">
            <mxPoint x="175" y="1260" as="sourcePoint" />
            <mxPoint x="200" y="1325" as="targetPoint" />
            <Array as="points">
              <mxPoint x="175" y="1335" />
            </Array>
          </mxGeometry>
        </mxCell>
        <mxCell id="4AkcXBOqCpAseEmQo_Ev-1" value="" style="endArrow=classic;html=1;rounded=0;entryX=0;entryY=0.5;entryDx=0;entryDy=0;" parent="1" edge="1">
          <mxGeometry width="50" height="50" relative="1" as="geometry">
            <mxPoint x="1010" y="359.5" as="sourcePoint" />
            <mxPoint x="1145" y="360" as="targetPoint" />
          </mxGeometry>
        </mxCell>
        <mxCell id="4AkcXBOqCpAseEmQo_Ev-2" value="Factor" style="text;html=1;align=center;verticalAlign=middle;whiteSpace=wrap;rounded=0;fontFamily=Courier New;fontColor=#001DBC;" parent="1" vertex="1">
          <mxGeometry x="1030" y="365" width="60" height="30" as="geometry" />
        </mxCell>
        <mxCell id="4AkcXBOqCpAseEmQo_Ev-3" value="" style="endArrow=classic;html=1;rounded=0;entryX=0;entryY=0.5;entryDx=0;entryDy=0;" parent="1" edge="1">
          <mxGeometry width="50" height="50" relative="1" as="geometry">
            <mxPoint x="1120" y="365" as="sourcePoint" />
            <mxPoint x="1145" y="430" as="targetPoint" />
            <Array as="points">
              <mxPoint x="1120" y="430" />
            </Array>
          </mxGeometry>
        </mxCell>
        <mxCell id="4AkcXBOqCpAseEmQo_Ev-4" value="" style="endArrow=classic;html=1;rounded=0;entryX=0;entryY=0.5;entryDx=0;entryDy=0;" parent="1" edge="1">
          <mxGeometry width="50" height="50" relative="1" as="geometry">
            <mxPoint x="1120" y="415" as="sourcePoint" />
            <mxPoint x="1145" y="500" as="targetPoint" />
            <Array as="points">
              <mxPoint x="1120" y="500" />
            </Array>
          </mxGeometry>
        </mxCell>
        <mxCell id="4AkcXBOqCpAseEmQo_Ev-5" value="" style="endArrow=classic;html=1;rounded=0;entryX=0;entryY=0.5;entryDx=0;entryDy=0;" parent="1" edge="1">
          <mxGeometry width="50" height="50" relative="1" as="geometry">
            <mxPoint x="1120" y="495" as="sourcePoint" />
            <mxPoint x="1145" y="570" as="targetPoint" />
            <Array as="points">
              <mxPoint x="1120" y="570" />
            </Array>
          </mxGeometry>
        </mxCell>
        <mxCell id="4AkcXBOqCpAseEmQo_Ev-6" style="edgeStyle=orthogonalEdgeStyle;rounded=0;orthogonalLoop=1;jettySize=auto;html=1;entryX=0;entryY=0.5;entryDx=0;entryDy=0;exitX=1;exitY=0.5;exitDx=0;exitDy=0;" parent="1" source="4AkcXBOqCpAseEmQo_Ev-8" edge="1">
          <mxGeometry relative="1" as="geometry">
            <mxPoint x="1308" y="357" as="sourcePoint" />
            <mxPoint x="1433" y="357" as="targetPoint" />
          </mxGeometry>
        </mxCell>
        <mxCell id="4AkcXBOqCpAseEmQo_Ev-7" value="" style="endArrow=none;html=1;rounded=0;exitX=1;exitY=0.5;exitDx=0;exitDy=0;" parent="1" edge="1">
          <mxGeometry width="50" height="50" relative="1" as="geometry">
            <mxPoint x="1235" y="430" as="sourcePoint" />
            <mxPoint x="1405" y="365" as="targetPoint" />
            <Array as="points">
              <mxPoint x="1405" y="430" />
            </Array>
          </mxGeometry>
        </mxCell>
        <mxCell id="4AkcXBOqCpAseEmQo_Ev-8" value="&lt;span style=&quot;font-family: &amp;quot;Courier New&amp;quot;;&quot;&gt;Variable&lt;/span&gt;" style="rounded=1;whiteSpace=wrap;html=1;" parent="1" vertex="1">
          <mxGeometry x="1145" y="335" width="90" height="45" as="geometry" />
        </mxCell>
        <mxCell id="4AkcXBOqCpAseEmQo_Ev-9" value="&lt;span style=&quot;font-family: &amp;quot;Courier New&amp;quot;;&quot;&gt;Constante&lt;/span&gt;" style="rounded=1;whiteSpace=wrap;html=1;" parent="1" vertex="1">
          <mxGeometry x="1145" y="405" width="90" height="45" as="geometry" />
        </mxCell>
        <mxCell id="4AkcXBOqCpAseEmQo_Ev-10" value="&lt;span style=&quot;font-family: &amp;quot;Courier New&amp;quot;;&quot;&gt;Expresión&lt;/span&gt;" style="rounded=1;whiteSpace=wrap;html=1;" parent="1" vertex="1">
          <mxGeometry x="1200" y="477" width="90" height="45" as="geometry" />
        </mxCell>
        <mxCell id="fFEaAFvY8BgOEWMc7ZjA-10" style="edgeStyle=orthogonalEdgeStyle;rounded=0;orthogonalLoop=1;jettySize=auto;html=1;exitX=1;exitY=0.5;exitDx=0;exitDy=0;entryX=0;entryY=0.5;entryDx=0;entryDy=0;" parent="1" source="4AkcXBOqCpAseEmQo_Ev-11" target="fFEaAFvY8BgOEWMc7ZjA-8" edge="1">
          <mxGeometry relative="1" as="geometry" />
        </mxCell>
        <mxCell id="4AkcXBOqCpAseEmQo_Ev-11" value="&lt;span style=&quot;font-family: &amp;quot;Courier New&amp;quot;;&quot;&gt;Expresión&lt;/span&gt;" style="rounded=1;whiteSpace=wrap;html=1;" parent="1" vertex="1">
          <mxGeometry x="1200" y="545" width="90" height="45" as="geometry" />
        </mxCell>
        <mxCell id="4AkcXBOqCpAseEmQo_Ev-12" value="&lt;span style=&quot;font-family: &amp;quot;Courier New&amp;quot;;&quot;&gt;Llamada a función&lt;/span&gt;" style="rounded=1;whiteSpace=wrap;html=1;" parent="1" vertex="1">
          <mxGeometry x="1145" y="605" width="90" height="45" as="geometry" />
        </mxCell>
        <mxCell id="4AkcXBOqCpAseEmQo_Ev-13" value="" style="endArrow=classic;html=1;rounded=0;entryX=0;entryY=0.5;entryDx=0;entryDy=0;" parent="1" edge="1">
          <mxGeometry width="50" height="50" relative="1" as="geometry">
            <mxPoint x="1120" y="545" as="sourcePoint" />
            <mxPoint x="1145" y="630" as="targetPoint" />
            <Array as="points">
              <mxPoint x="1120" y="630" />
            </Array>
          </mxGeometry>
        </mxCell>
        <mxCell id="4AkcXBOqCpAseEmQo_Ev-14" value="" style="endArrow=classic;html=1;rounded=0;entryX=0;entryY=0.5;entryDx=0;entryDy=0;" parent="1" edge="1">
          <mxGeometry width="50" height="50" relative="1" as="geometry">
            <mxPoint x="1120" y="605" as="sourcePoint" />
            <mxPoint x="1145" y="690" as="targetPoint" />
            <Array as="points">
              <mxPoint x="1120" y="690" />
            </Array>
          </mxGeometry>
        </mxCell>
        <mxCell id="4AkcXBOqCpAseEmQo_Ev-15" value="" style="endArrow=none;html=1;rounded=0;exitX=1;exitY=0.5;exitDx=0;exitDy=0;" parent="1" source="4AkcXBOqCpAseEmQo_Ev-10" edge="1">
          <mxGeometry width="50" height="50" relative="1" as="geometry">
            <mxPoint x="1340" y="500" as="sourcePoint" />
            <mxPoint x="1405" y="415" as="targetPoint" />
            <Array as="points">
              <mxPoint x="1405" y="500" />
            </Array>
          </mxGeometry>
        </mxCell>
        <mxCell id="4AkcXBOqCpAseEmQo_Ev-16" value="" style="endArrow=none;html=1;rounded=0;exitX=1;exitY=0.5;exitDx=0;exitDy=0;" parent="1" source="fFEaAFvY8BgOEWMc7ZjA-8" edge="1">
          <mxGeometry width="50" height="50" relative="1" as="geometry">
            <mxPoint x="1350" y="560" as="sourcePoint" />
            <mxPoint x="1405" y="495" as="targetPoint" />
            <Array as="points">
              <mxPoint x="1405" y="568" />
            </Array>
          </mxGeometry>
        </mxCell>
        <mxCell id="4AkcXBOqCpAseEmQo_Ev-17" value="" style="endArrow=none;html=1;rounded=0;exitX=1;exitY=0.5;exitDx=0;exitDy=0;" parent="1" edge="1">
          <mxGeometry width="50" height="50" relative="1" as="geometry">
            <mxPoint x="1235" y="630" as="sourcePoint" />
            <mxPoint x="1405" y="535" as="targetPoint" />
            <Array as="points">
              <mxPoint x="1405" y="630" />
            </Array>
          </mxGeometry>
        </mxCell>
        <mxCell id="4AkcXBOqCpAseEmQo_Ev-18" value="" style="endArrow=none;html=1;rounded=0;exitX=1;exitY=0.5;exitDx=0;exitDy=0;" parent="1" source="fFEaAFvY8BgOEWMc7ZjA-1" edge="1">
          <mxGeometry width="50" height="50" relative="1" as="geometry">
            <mxPoint x="1265" y="690" as="sourcePoint" />
            <mxPoint x="1405" y="605" as="targetPoint" />
            <Array as="points">
              <mxPoint x="1405" y="690" />
            </Array>
          </mxGeometry>
        </mxCell>
        <mxCell id="fFEaAFvY8BgOEWMc7ZjA-1" value="&lt;b&gt;&lt;font face=&quot;Courier New&quot;&gt;cte_str&lt;/font&gt;&lt;/b&gt;" style="ellipse;whiteSpace=wrap;html=1;" parent="1" vertex="1">
          <mxGeometry x="1145" y="661" width="65" height="50" as="geometry" />
        </mxCell>
        <mxCell id="fFEaAFvY8BgOEWMc7ZjA-3" style="edgeStyle=orthogonalEdgeStyle;rounded=0;orthogonalLoop=1;jettySize=auto;html=1;exitX=1;exitY=0.5;exitDx=0;exitDy=0;" parent="1" source="fFEaAFvY8BgOEWMc7ZjA-6" target="4AkcXBOqCpAseEmQo_Ev-10" edge="1">
          <mxGeometry relative="1" as="geometry">
            <mxPoint x="1194.9999999999934" y="499.4999999999998" as="sourcePoint" />
          </mxGeometry>
        </mxCell>
        <mxCell id="fFEaAFvY8BgOEWMc7ZjA-7" style="edgeStyle=orthogonalEdgeStyle;rounded=0;orthogonalLoop=1;jettySize=auto;html=1;exitX=1;exitY=0.5;exitDx=0;exitDy=0;entryX=0;entryY=0.5;entryDx=0;entryDy=0;" parent="1" source="fFEaAFvY8BgOEWMc7ZjA-5" target="4AkcXBOqCpAseEmQo_Ev-11" edge="1">
          <mxGeometry relative="1" as="geometry">
            <mxPoint x="1190" y="567.8333333333335" as="targetPoint" />
          </mxGeometry>
        </mxCell>
        <mxCell id="fFEaAFvY8BgOEWMc7ZjA-5" value="&lt;span style=&quot;font-size: 16px;&quot;&gt;(&lt;/span&gt;" style="ellipse;whiteSpace=wrap;html=1;aspect=fixed;fontStyle=1" parent="1" vertex="1">
          <mxGeometry x="1145" y="552.5" width="30" height="30" as="geometry" />
        </mxCell>
        <mxCell id="fFEaAFvY8BgOEWMc7ZjA-6" value="&lt;span style=&quot;font-size: 16px;&quot;&gt;!&lt;/span&gt;" style="ellipse;whiteSpace=wrap;html=1;aspect=fixed;fontStyle=1" parent="1" vertex="1">
          <mxGeometry x="1145" y="484.5" width="30" height="30" as="geometry" />
        </mxCell>
        <mxCell id="fFEaAFvY8BgOEWMc7ZjA-8" value=")" style="ellipse;whiteSpace=wrap;html=1;aspect=fixed;fontStyle=1" parent="1" vertex="1">
          <mxGeometry x="1310" y="552.5" width="30" height="30" as="geometry" />
        </mxCell>
      </root>
    </mxGraphModel>
  </diagram>
</mxfile>
